<svg width="25" height="24" viewBox="0 0 25 24" fill="none" xmlns="http://www.w3.org/2000/svg">
<g clip-path="url(#clip0_132_7160)">
<path d="M21.5303 10.7826C20.4706 6.89832 17.0627 3.96415 12.8697 3.65775V2.08453C12.8697 1.69619 12.5549 1.38135 12.1665 1.38135C11.7782 1.38135 11.4634 1.69619 11.4634 2.08453V3.65775C7.26805 3.96434 3.86186 6.90052 2.80282 10.7826C1.55227 10.9595 0.587402 12.037 0.587402 13.3355C0.587402 14.6341 1.55227 15.7115 2.80282 15.8884C3.94254 20.0662 7.75095 23.0395 12.1665 23.0395C16.5839 23.0395 20.3911 20.0645 21.5303 15.8884C22.7808 15.7115 23.7457 14.6341 23.7457 13.3355C23.7457 12.037 22.7808 10.9595 21.5303 10.7826ZM21.0456 14.5013C20.687 14.4641 20.3594 14.7036 20.2852 15.0558C19.482 18.867 16.0676 21.6332 12.1665 21.6332C8.2654 21.6332 4.85101 18.867 4.04783 15.0558C3.97362 14.7037 3.64584 14.4644 3.28745 14.5013C2.59359 14.5733 1.99373 14.027 1.99373 13.3356C1.99373 12.6434 2.59416 12.0979 3.28745 12.1699C3.64584 12.207 3.97367 11.9675 4.04783 11.6154C4.85101 7.80416 8.26545 5.03797 12.1665 5.03797C16.0676 5.03797 19.4821 7.80416 20.2853 11.6154C20.3595 11.9675 20.6872 12.2068 21.0456 12.1699C21.7395 12.0979 22.3394 12.6442 22.3394 13.3356C22.3393 14.0276 21.7389 14.5732 21.0456 14.5013Z" fill="#00855D"/>
<path d="M12.1667 13.7574C9.7888 13.7574 7.71313 15.6593 7.71313 18.2578C7.71313 19.0333 8.34403 19.6642 9.11951 19.6642H15.2138C15.9893 19.6642 16.6202 19.0333 16.6202 18.2578C16.6202 15.6579 14.5431 13.7574 12.1667 13.7574ZM12.8698 18.2578V17.4609C12.8698 17.0725 12.555 16.7577 12.1667 16.7577C11.7783 16.7577 11.4635 17.0725 11.4635 17.4609V18.2578H9.11951C9.11951 16.452 10.5471 15.1638 12.1667 15.1638C13.8468 15.1638 15.2138 16.5308 15.2138 18.211L15.2147 18.2578C15.2099 18.2586 14.9312 18.2578 12.8698 18.2578Z" fill="#00855D"/>
<path d="M8.35569 12.4643L10.6059 11.3392C11.0868 11.0988 11.1316 10.4252 10.6815 10.1252L8.43125 8.62507C8.10812 8.40966 7.67153 8.49695 7.45612 8.82009C7.24067 9.14323 7.328 9.57981 7.65114 9.79522L8.89311 10.6232L7.72676 11.2064C7.37938 11.3801 7.2386 11.8025 7.41229 12.1498C7.58631 12.4979 8.00906 12.6377 8.35569 12.4643Z" fill="#00855D"/>
<path d="M16.8769 8.82009C16.6615 8.49695 16.2249 8.40966 15.9018 8.62507L13.6516 10.1252C13.2031 10.4241 13.2446 11.098 13.7271 11.3392L15.9773 12.4643C16.3247 12.638 16.7471 12.4971 16.9207 12.1498C17.0944 11.8025 16.9536 11.3801 16.6063 11.2064L15.4399 10.6232L16.6818 9.79522C17.0051 9.57981 17.0924 9.14323 16.8769 8.82009Z" fill="#00855D"/>
<path d="M20.0946 5.786C20.7105 5.73992 22.7766 5.53252 23.5085 4.80074C24.3858 3.92335 24.3858 2.49583 23.5085 1.61844C23.5084 1.61844 23.5084 1.61844 23.5084 1.6184C22.6311 0.741149 21.2035 0.741102 20.3261 1.61844C19.5944 2.35023 19.387 4.41642 19.3409 5.03223C19.3087 5.46188 19.6673 5.81839 20.0946 5.786ZM21.3206 2.61299C21.6493 2.28413 22.1849 2.28385 22.5139 2.61294C22.843 2.94198 22.843 3.4773 22.514 3.80629C22.3515 3.96887 21.6456 4.16248 20.8414 4.28549C20.9644 3.48123 21.158 2.77547 21.3206 2.61299Z" fill="#00855D"/>
<path d="M4.23835 5.78607C4.66481 5.81837 5.02432 5.46284 4.99207 5.03235C4.94599 4.4165 4.73859 2.35035 4.00686 1.61857C4.00681 1.61857 4.00681 1.61857 4.00681 1.61852C3.12947 0.741271 1.70191 0.741224 0.82447 1.61857C-0.0528259 2.49596 -0.0528259 3.92347 0.824517 4.80091C1.55635 5.5326 3.6225 5.73999 4.23835 5.78607ZM1.81896 2.61306C2.14773 2.2842 2.68332 2.28392 3.01232 2.61301C3.1749 2.77554 3.36851 3.4814 3.49152 4.28557C2.68731 4.16256 1.98149 3.96895 1.81901 3.80642C1.49001 3.47737 1.49001 2.94201 1.81896 2.61306Z" fill="#00855D"/>
<path d="M3.16656 19.7579C2.77427 19.7579 2.46313 20.0761 2.46313 20.4611C2.46313 20.8495 2.77821 21.1643 3.16656 21.1643C3.55495 21.1643 3.86974 20.8495 3.86974 20.4611C3.86974 20.0728 3.55495 19.7579 3.16656 19.7579Z" fill="#00855D"/>
<path d="M21.5433 19.7579C21.151 19.7579 20.8398 20.0761 20.8398 20.4611C20.8398 20.8495 21.1549 21.1643 21.5433 21.1643C21.9317 21.1643 22.2465 20.8495 22.2465 20.4611C22.2465 20.0728 21.9317 19.7579 21.5433 19.7579Z" fill="#00855D"/>
<path d="M1.66609 7.38184C1.27774 7.38184 0.963135 7.69668 0.963135 8.08502C0.963135 8.47337 1.27821 8.78821 1.66656 8.78821C2.05495 8.78821 2.36974 8.47337 2.36974 8.08502C2.36974 7.69986 2.05823 7.38184 1.66609 7.38184Z" fill="#00855D"/>
<path d="M22.6678 7.38184C22.2794 7.38184 21.9648 7.69668 21.9648 8.08502C21.9648 8.47337 22.2799 8.78821 22.6683 8.78821C23.0567 8.78821 23.3715 8.47337 23.3715 8.08502C23.3715 7.69986 23.0599 7.38184 22.6678 7.38184Z" fill="#00855D"/>
</g>
<defs>
<clipPath id="clip0_132_7160">
<rect width="24" height="24" fill="white" transform="translate(0.166504)"/>
</clipPath>
</defs>
</svg>
