<svg width="25" height="24" viewBox="0 0 25 24" fill="none" xmlns="http://www.w3.org/2000/svg">
<path d="M8.37436 13.7024L7.3028 17.3952C7.18984 17.4538 7.06984 17.4998 6.94327 17.5307C6.81718 17.5621 6.68499 17.5785 6.54906 17.5785C5.64438 17.5785 4.91125 16.8454 4.91125 15.9407V8.59778C4.91125 8.07935 5.10579 7.60638 5.42547 7.24779C5.49391 7.25201 5.56328 7.25435 5.63266 7.25435C6.12719 7.25435 6.59593 7.14467 7.01593 6.94873L8.37436 13.7024Z" stroke="#00855D" stroke-miterlimit="10" stroke-linejoin="round"/>
<path d="M11.0297 16.0074L10.837 16.6826C10.6423 17.3649 10.651 18.0893 10.8621 18.7667L11.7579 21.9193C11.9961 22.6835 12.717 23.1932 13.5169 23.1628L13.5655 23.161C14.7354 23.1166 15.5414 21.9701 15.1873 20.8543L14.2298 17.5483L14.957 13.4469" stroke="#00855D" stroke-miterlimit="10" stroke-linecap="round" stroke-linejoin="round"/>
<path d="M8.90831 3.97875C8.90831 4.17891 8.89049 4.37484 8.85581 4.56469C8.66456 5.62453 7.96377 6.50672 7.01596 6.94875C6.59596 7.14469 6.12721 7.25437 5.63268 7.25437C5.56331 7.25437 5.49393 7.25203 5.42549 7.24781C3.71315 7.14094 2.35706 5.71875 2.35706 3.97875C2.35706 2.16984 3.82377 0.703125 5.63268 0.703125C7.44206 0.703125 8.90831 2.16984 8.90831 3.97875Z" stroke="#00855D" stroke-miterlimit="10" stroke-linejoin="round"/>
<path d="M11.192 19.8257L11.4704 20.9976C11.5257 21.1752 11.552 21.3533 11.552 21.5272C11.552 22.4488 10.8236 23.2611 9.84107 23.2958C9.01139 23.3249 8.27264 22.7736 8.06358 21.9702L7.34546 19.0415C7.17952 18.4026 7.18984 17.7309 7.3764 17.0976L8.37436 13.7024L7.01593 6.94873" stroke="#00855D" stroke-miterlimit="10" stroke-linecap="round" stroke-linejoin="round"/>
<path d="M8.85577 4.56461C9.00343 4.54165 9.15202 4.5304 9.29968 4.5304C9.50874 4.5304 9.71639 4.5529 9.91889 4.59649L14.4657 5.86211C16.2151 6.38523 17.2089 8.22694 16.6857 9.97583L15.9681 12.3763C15.7562 13.0864 15.1051 13.5449 14.4001 13.5449C14.2445 13.5449 14.0865 13.5228 13.93 13.476C13.0632 13.2172 12.5706 12.3046 12.8298 11.4379L13.5559 9.00928L10.6581 8.16834" stroke="#00855D" stroke-miterlimit="10" stroke-linecap="round" stroke-linejoin="round"/>
<path d="M20.833 3.03099C20.3165 2.84499 19.747 3.11292 19.561 3.62944C19.375 4.14595 18.8055 4.41394 18.2889 4.22789" stroke="#00855D" stroke-miterlimit="10" stroke-linecap="round" stroke-linejoin="round"/>
<path d="M22.9763 6.16136C22.4598 5.97536 21.8902 6.24329 21.7042 6.75981C21.5182 7.27633 20.9487 7.54431 20.4322 7.35826" stroke="#00855D" stroke-miterlimit="10" stroke-linecap="round" stroke-linejoin="round"/>
<path d="M12.1978 8.61502L12.9843 5.44983" stroke="#00855D" stroke-miterlimit="10" stroke-linejoin="round"/>
<path d="M4.91113 12.5563H7.80201" stroke="#00855D" stroke-miterlimit="10" stroke-linejoin="round"/>
<path d="M8.37445 13.7022L13.2003 13.0228" stroke="#00855D" stroke-miterlimit="10" stroke-linecap="round" stroke-linejoin="round"/>
</svg>
