<svg width="25" height="24" viewBox="0 0 25 24" fill="none" xmlns="http://www.w3.org/2000/svg">
<path d="M13.4375 9.23438H11.5625C11.0447 9.23438 10.625 8.81466 10.625 8.29688V7.35938C10.625 6.84159 11.0447 6.42188 11.5625 6.42188H13.4375C13.9553 6.42188 14.375 6.84159 14.375 7.35938V8.29688C14.375 8.81466 13.9553 9.23438 13.4375 9.23438Z" stroke="#00855D" stroke-miterlimit="10" stroke-linecap="round" stroke-linejoin="round"/>
<path d="M13.4375 12.0469H11.5625C11.0447 12.0469 10.625 11.6272 10.625 11.1094V10.1719C10.625 9.65409 11.0447 9.23438 11.5625 9.23438H13.4375C13.9553 9.23438 14.375 9.65409 14.375 10.1719V11.1094C14.375 11.6272 13.9553 12.0469 13.4375 12.0469Z" stroke="#00855D" stroke-miterlimit="10" stroke-linecap="round" stroke-linejoin="round"/>
<path d="M13.4375 14.8594H11.5625C11.0447 14.8594 10.625 14.4397 10.625 13.9219V12.9844C10.625 12.4666 11.0447 12.0469 11.5625 12.0469H13.4375C13.9553 12.0469 14.375 12.4666 14.375 12.9844V13.9219C14.375 14.4397 13.9553 14.8594 13.4375 14.8594Z" stroke="#00855D" stroke-miterlimit="10" stroke-linecap="round" stroke-linejoin="round"/>
<path d="M13.4375 17.6719H11.5625C11.0447 17.6719 10.625 17.2522 10.625 16.7344V15.7969C10.625 15.2791 11.0447 14.8594 11.5625 14.8594H13.4375C13.9553 14.8594 14.375 15.2791 14.375 15.7969V16.7344C14.375 17.2522 13.9553 17.6719 13.4375 17.6719Z" stroke="#00855D" stroke-miterlimit="10" stroke-linecap="round" stroke-linejoin="round"/>
<path d="M13.4375 20.4844H11.5625C11.0447 20.4844 10.625 20.0647 10.625 19.5469V18.6094C10.625 18.0916 11.0447 17.6719 11.5625 17.6719H13.4375C13.9553 17.6719 14.375 18.0916 14.375 18.6094V19.5469C14.375 20.0647 13.9553 20.4844 13.4375 20.4844Z" stroke="#00855D" stroke-miterlimit="10" stroke-linecap="round" stroke-linejoin="round"/>
<path d="M14.375 7.82812H15.7812" stroke="#00855D" stroke-miterlimit="10" stroke-linecap="round" stroke-linejoin="round"/>
<path d="M14.375 10.6406H15.7812" stroke="#00855D" stroke-miterlimit="10" stroke-linecap="round" stroke-linejoin="round"/>
<path d="M14.375 13.4531H15.7812" stroke="#00855D" stroke-miterlimit="10" stroke-linecap="round" stroke-linejoin="round"/>
<path d="M14.375 16.2656H15.7812" stroke="#00855D" stroke-miterlimit="10" stroke-linecap="round" stroke-linejoin="round"/>
<path d="M14.375 19.0781H15.7812" stroke="#00855D" stroke-miterlimit="10" stroke-linecap="round" stroke-linejoin="round"/>
<path d="M9.21875 7.82812H10.625" stroke="#00855D" stroke-miterlimit="10" stroke-linecap="round" stroke-linejoin="round"/>
<path d="M9.21875 10.6406H10.625" stroke="#00855D" stroke-miterlimit="10" stroke-linecap="round" stroke-linejoin="round"/>
<path d="M9.21875 13.4531H10.625" stroke="#00855D" stroke-miterlimit="10" stroke-linecap="round" stroke-linejoin="round"/>
<path d="M9.21875 16.2656H10.625" stroke="#00855D" stroke-miterlimit="10" stroke-linecap="round" stroke-linejoin="round"/>
<path d="M9.21875 19.0781H10.625" stroke="#00855D" stroke-miterlimit="10" stroke-linecap="round" stroke-linejoin="round"/>
<path d="M19.079 23.2969H22.3438V7.15237C22.3438 5.36484 21.082 3.82575 19.3292 3.47522L15.3125 2.67188L14.8438 0.703125H10.1562L9.6875 2.67188L5.67083 3.47522C3.91798 3.8258 2.65625 5.36484 2.65625 7.15237V23.2969H5.921" stroke="#00855D" stroke-miterlimit="10" stroke-linecap="round" stroke-linejoin="round"/>
<path d="M5.70312 9.23438V9.52256C5.70312 11.1901 6.02131 12.8423 6.64062 14.3906V15.6814C6.64062 17.3147 6.44033 18.9418 6.04419 20.5263C5.81769 21.4325 5.70312 22.3629 5.70312 23.2969H19.2969C19.2969 22.3629 19.1823 21.4325 18.9558 20.5264C18.5597 18.9419 18.3594 17.3147 18.3594 15.6815V14.3906C18.9787 12.8423 19.2969 11.1901 19.2969 9.52256V9.23438" stroke="#00855D" stroke-miterlimit="10" stroke-linecap="round" stroke-linejoin="round"/>
</svg>
