<svg width="24" height="24" viewBox="0 0 24 24" fill="none" xmlns="http://www.w3.org/2000/svg">
<g clip-path="url(#clip0_136_8521)">
<path d="M23.9529 14.4329C23.9528 14.4124 23.9518 14.3917 23.9498 14.3712C23.9495 14.3665 23.9487 14.3621 23.9484 14.3573C23.9462 14.3386 23.9434 14.3201 23.9398 14.3015C23.939 14.2974 23.9381 14.2934 23.9372 14.2892C23.9335 14.2725 23.9291 14.2559 23.9244 14.2394C23.9225 14.233 23.9205 14.2264 23.9185 14.22C23.9132 14.2037 23.9074 14.1874 23.9008 14.1713L23.8991 14.1671C23.8984 14.1652 23.8976 14.1636 23.8969 14.1619L19.682 3.85876C19.6818 3.85803 19.6815 3.8573 19.6811 3.85675C19.678 3.84906 19.6745 3.84192 19.671 3.83441C19.6657 3.82288 19.6604 3.81134 19.6545 3.80017C19.6507 3.79285 19.6467 3.78571 19.6426 3.77856C19.6359 3.76666 19.6287 3.75513 19.6214 3.74359C19.6179 3.7381 19.6143 3.73242 19.6106 3.72693C19.5991 3.71008 19.587 3.69379 19.5742 3.67822C19.5734 3.67731 19.5727 3.67657 19.572 3.67566C19.5595 3.66083 19.5465 3.64655 19.533 3.63281C19.5287 3.6286 19.5245 3.62457 19.5203 3.62036C19.5095 3.60992 19.4985 3.60004 19.4872 3.59033C19.4822 3.58612 19.4775 3.58191 19.4725 3.57806C19.459 3.56708 19.4451 3.55664 19.4308 3.54675C19.4282 3.54492 19.4257 3.54291 19.4229 3.54108C19.4068 3.53027 19.3901 3.52039 19.3733 3.51086C19.3663 3.50702 19.3594 3.50354 19.3524 3.50006C19.3412 3.49439 19.3299 3.48889 19.3185 3.48376C19.3109 3.48029 19.3032 3.47681 19.2953 3.47369C19.2819 3.4682 19.2682 3.46344 19.2545 3.45868C19.2475 3.45648 19.2407 3.45392 19.2338 3.4519C19.2164 3.44659 19.1986 3.44202 19.1807 3.43817C19.1735 3.43671 19.1662 3.43543 19.1589 3.43414C19.1446 3.4314 19.1303 3.4292 19.1157 3.42737C19.1089 3.42664 19.1021 3.42572 19.0953 3.42517C19.0741 3.42316 19.0529 3.42188 19.0314 3.42188H14.6766C14.3637 2.21027 13.2612 1.3125 11.9533 1.3125C10.6452 1.3125 9.54273 2.21027 9.2298 3.42188H4.87518C4.85358 3.42188 4.83234 3.42316 4.8111 3.42517C4.80414 3.42572 4.79736 3.42664 4.79059 3.42737C4.77612 3.4292 4.76166 3.4314 4.74738 3.43396C4.74005 3.43543 4.73291 3.43652 4.72559 3.43817C4.70783 3.44202 4.69006 3.44659 4.67267 3.45172C4.66553 3.45392 4.65875 3.4563 4.65179 3.45868C4.63806 3.46326 4.62451 3.4682 4.61115 3.47351C4.60327 3.47681 4.59558 3.4801 4.58789 3.48358C4.57636 3.48871 4.56519 3.4942 4.55402 3.49988C4.54706 3.50354 4.53992 3.50702 4.53314 3.51086C4.51611 3.52039 4.49945 3.53027 4.48334 3.54108C4.48077 3.54291 4.47821 3.54492 4.47546 3.54675C4.46118 3.55664 4.44727 3.56708 4.43372 3.57788C4.42877 3.58191 4.42401 3.58612 4.41925 3.59015C4.4079 3.59985 4.39691 3.60992 4.38611 3.62036C4.3819 3.62439 4.3775 3.62842 4.37347 3.63263C4.35992 3.64655 4.34692 3.66064 4.33447 3.67566C4.33374 3.67639 4.33301 3.67731 4.33228 3.67804C4.31946 3.69379 4.30737 3.71008 4.29584 3.72693C4.29199 3.73224 4.28851 3.73792 4.28485 3.74359C4.27753 3.75494 4.27039 3.76666 4.26379 3.77838C4.25958 3.78552 4.25574 3.79266 4.25189 3.79999C4.24603 3.81134 4.24054 3.82288 4.23523 3.83441C4.23193 3.84174 4.22827 3.84906 4.22516 3.85657C4.22498 3.8573 4.22461 3.85803 4.22424 3.85876L0.00933839 14.1617C0.00860597 14.1636 0.00805664 14.1652 0.00732422 14.1669L0.00549319 14.1713C-0.00109866 14.1872 -0.00677489 14.2037 -0.0120849 14.22C-0.0142822 14.2264 -0.0161133 14.233 -0.0181275 14.2394C-0.0228882 14.2559 -0.0272827 14.2725 -0.0307617 14.2892C-0.0316772 14.2932 -0.0325927 14.2974 -0.0335083 14.3015C-0.0369873 14.3199 -0.0397339 14.3386 -0.0419311 14.3573C-0.0424805 14.3619 -0.0430298 14.3665 -0.0435791 14.371C-0.0454102 14.3917 -0.0465088 14.4124 -0.0466919 14.4329C-0.0466919 14.4346 -0.046875 14.436 -0.046875 14.4375C-0.046875 16.8929 2.16101 18.8906 4.875 18.8906C7.58899 18.8906 9.79688 16.8929 9.79688 14.4375C9.79688 14.4359 9.79669 14.4344 9.79669 14.4329C9.79651 14.4124 9.79541 14.3917 9.79358 14.371C9.79303 14.3665 9.79248 14.3619 9.79193 14.3573C9.78973 14.3386 9.78699 14.3199 9.78351 14.3015C9.78259 14.2974 9.78168 14.2932 9.78076 14.2892C9.77728 14.2725 9.77289 14.2559 9.76813 14.2394C9.76611 14.233 9.76428 14.2264 9.76209 14.22C9.75678 14.2037 9.7511 14.1874 9.74451 14.1713L9.74268 14.1669C9.74194 14.1652 9.74139 14.1636 9.74066 14.1617L5.92236 4.82813H9.22962C9.48468 5.81506 10.2632 6.59363 11.25 6.84851V21.3281H8.67188C8.28369 21.3281 7.96875 21.6429 7.96875 22.0313C7.96875 22.4196 8.28369 22.7344 8.67188 22.7344H15.2344C15.6227 22.7344 15.9375 22.4196 15.9375 22.0313C15.9375 21.6429 15.6227 21.3281 15.2344 21.3281H12.6563V6.84851C13.6432 6.59345 14.4218 5.81506 14.6766 4.82813H17.9839L14.1656 14.1619C14.1649 14.1636 14.1643 14.1654 14.1634 14.1671L14.1617 14.1713C14.1552 14.1874 14.1495 14.2037 14.144 14.2202C14.142 14.2266 14.1401 14.233 14.1381 14.2394C14.1334 14.256 14.129 14.2725 14.1253 14.2894C14.1244 14.2934 14.1237 14.2974 14.1227 14.3016C14.1191 14.3201 14.1163 14.3388 14.1143 14.3575C14.1138 14.3621 14.113 14.3666 14.1127 14.3712C14.1107 14.3917 14.1097 14.4124 14.1096 14.4331C14.1096 14.4346 14.1094 14.436 14.1094 14.4375C14.1094 16.8929 16.3173 18.8906 19.0313 18.8906C21.7451 18.8906 23.9531 16.8929 23.9531 14.4375C23.9533 14.436 23.9529 14.4346 23.9529 14.4329ZM4.87518 17.4844C3.2157 17.4844 1.82117 16.483 1.45404 15.1406H8.29633C7.92902 16.483 6.53449 17.4844 4.87518 17.4844ZM1.70361 13.7344L4.87518 5.98206L8.04657 13.7344H1.70361ZM11.9533 5.53125C11.1779 5.53125 10.5471 4.90045 10.5471 4.125C10.5471 3.34955 11.1779 2.71875 11.9533 2.71875C12.7286 2.71875 13.3596 3.34955 13.3596 4.125C13.3596 4.90045 12.7286 5.53125 11.9533 5.53125ZM19.0314 5.98206L22.2028 13.7344H15.8599L19.0314 5.98206ZM19.0314 17.4844C17.372 17.4844 15.9774 16.483 15.6103 15.1406H22.4526C22.0853 16.483 20.6907 17.4844 19.0314 17.4844Z" fill="#00855D"/>
</g>
<defs>
<clipPath id="clip0_136_8521">
<rect width="24" height="24" fill="white"/>
</clipPath>
</defs>
</svg>
