<svg width="24" height="24" viewBox="0 0 24 24" fill="none" xmlns="http://www.w3.org/2000/svg">
<g clip-path="url(#clip0_12_881)">
<path d="M11.6949 7.47798C12.0832 7.47798 12.398 7.1625 12.398 6.77335C12.398 6.3842 12.0832 6.06873 11.6949 6.06873C11.3066 6.06873 10.9918 6.3842 10.9918 6.77335C10.9918 7.1625 11.3066 7.47798 11.6949 7.47798Z" fill="#00855D"/>
<path d="M18.7894 5.21039H14.6599L13.892 4.16957C13.1413 3.15173 11.9392 2.54404 10.6763 2.54404H9.51475C9.33625 2.0639 8.96912 1.67142 8.49245 1.4661C7.92742 1.22264 7.2774 1.27082 6.75367 1.59482C5.37597 2.44729 4.21726 3.52701 3.30976 4.80412C2.79048 5.53481 2.8427 6.50709 3.43679 7.16854C3.48203 7.21889 3.5305 7.27031 3.58075 7.32224L0.04159 17.1563C-0.0459725 17.4001 0.00694939 17.6722 0.179403 17.8652C0.537668 18.2661 0.932824 18.6547 1.354 19.0206C4.03304 21.3478 7.23812 22.2936 9.45507 22.6771C9.49534 22.6841 9.53551 22.6875 9.57522 22.6875C9.87765 22.6875 10.1527 22.4912 10.2458 22.1932L12.5572 14.8074C13.3013 14.9149 14.1107 14.9584 14.8578 14.9276C15.6094 14.8967 16.6352 14.7776 17.2537 14.3856C17.6688 14.1224 17.8902 13.6549 17.8315 13.1653C17.7758 12.7003 17.48 12.314 17.0522 12.1398L16.1799 11.6437C17.6207 11.2145 18.6377 10.3762 19.3451 9.50376C19.8214 8.92326 20.199 8.24062 20.4227 7.7301C20.9655 6.59657 20.0439 5.1727 18.7894 5.21039ZM19.1082 6.79289C19.1424 6.84543 19.2134 6.98629 19.1372 7.1587C18.9953 7.47914 18.8204 7.81232 18.6058 8.13914C18.2525 7.9296 17.9867 7.63818 17.8391 7.28948C17.7505 7.08042 17.7059 6.8542 17.7052 6.61964H18.7893C18.9689 6.61968 19.0662 6.7282 19.1082 6.79289ZM4.45525 5.62162C5.25334 4.49845 6.27522 3.54717 7.49242 2.79403C7.80348 2.64403 8.0889 2.71256 8.21776 3.10504C8.69439 5.39254 8.70751 7.16076 8.25292 7.83501C8.18429 7.93682 8.07793 8.04337 7.80948 8.06203C7.03576 8.11617 5.75368 7.40526 4.88275 6.62325C4.59915 6.36018 4.16481 6.03323 4.45525 5.62162ZM9.09072 21.1735C7.09975 20.76 4.47878 19.87 2.27514 17.9557C2.00668 17.7225 1.75047 17.4794 1.5099 17.2297L2.05089 15.724C3.13407 17.0278 5.39303 19.0129 9.51278 19.8222L9.09072 21.1735ZM13.6915 11.8488L16.2507 13.3043C15.9599 13.4002 15.4772 13.4916 14.8001 13.5194C13.9453 13.5545 13.0022 13.481 12.2121 13.3175C11.8579 13.2443 11.5066 13.4518 11.3987 13.7974L9.94192 18.4694C7.07645 17.934 5.23993 16.7838 4.18454 15.8842C3.32931 15.1552 2.84106 14.4745 2.62309 14.1278L4.72642 8.29204C6.11298 9.2691 8.26993 10.2149 9.41809 8.62401C10.0217 7.7287 10.15 6.15989 9.80298 3.95329H10.6763C11.495 3.95329 12.2744 4.34728 12.7612 5.00732L13.7399 6.33393C13.8725 6.5136 14.0823 6.61964 14.3053 6.61964H16.2988C16.2994 7.04193 16.3812 7.4542 16.5446 7.84003C16.7814 8.3992 17.1744 8.87029 17.6854 9.2219C16.8489 9.97682 15.6769 10.5314 14.0387 10.5314C13.7194 10.5314 13.4403 10.7468 13.3588 11.0561C13.2773 11.3654 13.4139 11.6909 13.6915 11.8488Z" fill="#00855D"/>
<path d="M23.2969 11.6113H21.4688C21.0804 11.6113 20.7656 11.9268 20.7656 12.316C20.7656 12.7051 21.0804 13.0206 21.4688 13.0206H23.2969C23.6852 13.0206 24 12.7051 24 12.316C24 11.9268 23.6852 11.6113 23.2969 11.6113Z" fill="#00855D"/>
<path d="M21.7365 10.38C21.9164 10.38 22.0964 10.3112 22.2336 10.1736L23.5263 8.87809C23.8009 8.60293 23.8009 8.15678 23.5263 7.88157C23.2518 7.60632 22.8066 7.60642 22.532 7.88157L21.2393 9.17706C20.9647 9.45221 20.9647 9.89837 21.2393 10.1736C21.3766 10.3112 21.5565 10.38 21.7365 10.38Z" fill="#00855D"/>
<path d="M22.2336 14.4377C21.9591 14.1625 21.5139 14.1626 21.2393 14.4377C20.9647 14.7129 20.9647 15.1591 21.2393 15.4342L22.532 16.7297C22.6693 16.8674 22.8492 16.9361 23.0291 16.9361C23.2091 16.9361 23.3891 16.8673 23.5263 16.7297C23.8009 16.4545 23.8009 16.0084 23.5263 15.7332L22.2336 14.4377Z" fill="#00855D"/>
</g>
<defs>
<clipPath id="clip0_12_881">
<rect width="24" height="24" fill="white"/>
</clipPath>
</defs>
</svg>
