<svg width="24" height="24" viewBox="0 0 24 24" fill="none" xmlns="http://www.w3.org/2000/svg">
<g clip-path="url(#clip0_12_862)">
<path d="M12.705 14.0649C12.6518 13.8287 12.4813 13.6363 12.2533 13.555L10.9203 13.0798L10.445 11.7467C10.3637 11.5187 10.1713 11.3482 9.93514 11.2951L8.56615 10.987C8.32916 10.9336 8.08126 11.0059 7.91006 11.1784L4.16988 14.948C4.06385 15.0541 3.9024 15.0981 3.72705 15.0687C1.74546 14.7372 0.0124738 16.169 5.02916e-05 18.1734C-0.00936146 19.7 0.995625 21.0766 2.43854 21.5615C3.26757 24.0286 6.39373 24.7962 8.08601 23.0615C8.79759 22.3321 9.10563 21.3157 8.93128 20.273C8.90196 20.0977 8.94601 19.9363 9.05006 19.8321L12.8216 16.09C12.9941 15.9189 13.0665 15.671 13.0131 15.4339L12.705 14.0649ZM8.05378 18.8319C7.62738 19.2583 7.43491 19.8841 7.53891 20.5059C7.6382 21.0998 7.46931 21.672 7.07552 22.0757C6.05529 23.1215 4.04277 22.4932 3.70983 20.8628C3.58564 20.155 3.77797 19.6021 4.17482 19.2052C4.45044 18.9296 4.45044 18.4827 4.17482 18.207C3.89915 17.9314 3.45223 17.9314 3.17656 18.207C2.71054 18.6731 2.41087 19.272 2.30273 19.9181C1.26113 19.1538 1.1304 17.6991 1.92447 16.9246C2.32814 16.5308 2.90023 16.3619 3.49426 16.4612C4.11609 16.5652 4.74188 16.3726 5.17016 15.9443L8.63721 12.45L9.24587 12.587L9.703 13.8693C9.77415 14.0689 9.93123 14.226 10.1309 14.2972L11.4132 14.7543L11.5501 15.3629L8.05378 18.8319Z" fill="#00855D"/>
<path d="M21.689 2.31111C21.2596 0.981753 20.0064 -0.0101042 18.4867 0.000201647C16.4874 0.0119193 15.0096 1.75192 15.2868 3.70928C15.3109 3.88015 15.2605 4.04245 15.1505 4.15248L11.6983 7.57666C11.2523 8.01915 11.5661 8.78371 12.1954 8.78371H13.1805L13.3601 10.0411C13.4045 10.3517 13.6485 10.5957 13.959 10.64L15.2164 10.8197V11.8047C15.2164 12.4329 15.9801 12.7488 16.4235 12.3018L19.8456 8.85162C19.9576 8.73957 20.1199 8.68903 20.2908 8.71336C22.2459 8.99016 23.9881 7.51548 23.9999 5.51346C24.009 3.97723 23.0042 2.73587 21.689 2.31111ZM22.0447 6.81346C21.6342 7.2144 21.0672 7.39746 20.4887 7.31548C19.8834 7.22974 19.2698 7.43087 18.8453 7.85534L16.6198 10.099C16.5731 9.79646 16.3334 9.55308 16.0221 9.50865L14.6828 9.31731L14.4914 7.97802C14.4469 7.66668 14.2036 7.42706 13.901 7.38028L16.1467 5.1528C16.5692 4.73036 16.7702 4.11676 16.6845 3.51144C16.6027 2.93304 16.7856 2.36594 17.1866 1.95549C18.2054 0.912341 20.1276 1.43027 20.4088 2.99874C20.5118 3.67455 20.3003 4.24278 19.9026 4.64043C19.6269 4.9161 19.6269 5.36301 19.9026 5.63868C20.1782 5.91435 20.6252 5.91435 20.9009 5.63868C21.3698 5.16979 21.6771 4.57158 21.7955 3.93111C22.7699 4.64259 22.8391 6.03755 22.0447 6.81346Z" fill="#00855D"/>
<path d="M7.11241 7.8524C7.38804 8.12807 7.835 8.12812 8.11067 7.8524C8.38634 7.57673 8.38634 7.12981 8.11067 6.85414L6.51345 5.25692C6.23783 4.98125 5.79086 4.98125 5.51519 5.25692C5.23952 5.53259 5.23952 5.97951 5.51519 6.25518L7.11241 7.8524Z" fill="#00855D"/>
<path d="M9.74116 5.92949C10.131 5.92949 10.447 5.61345 10.447 5.22361V2.96479C10.447 2.57496 10.131 2.25891 9.74116 2.25891C9.35132 2.25891 9.03528 2.57496 9.03528 2.96479V5.22361C9.03528 5.61345 9.35132 5.92949 9.74116 5.92949Z" fill="#00855D"/>
<path d="M3.22309 10.1887H5.48191C5.87175 10.1887 6.18779 9.87269 6.18779 9.48286C6.18779 9.09302 5.87175 8.77698 5.48191 8.77698H3.22309C2.83326 8.77698 2.51721 9.09302 2.51721 9.48286C2.51721 9.87269 2.83321 10.1887 3.22309 10.1887Z" fill="#00855D"/>
<path d="M17.2774 15.876C17.0018 15.6004 16.5549 15.6004 16.2792 15.876C16.0035 16.1517 16.0035 16.5986 16.2792 16.8743L17.8764 18.4715C18.0142 18.6094 18.1948 18.6783 18.3755 18.6783C18.9987 18.6783 19.3205 17.9192 18.8746 17.4733L17.2774 15.876Z" fill="#00855D"/>
<path d="M14.6487 17.799C14.2589 17.799 13.9428 18.115 13.9428 18.5048V20.7636C13.9428 21.1535 14.2589 21.4695 14.6487 21.4695C15.0385 21.4695 15.3546 21.1535 15.3546 20.7636V18.5048C15.3546 18.115 15.0385 17.799 14.6487 17.799Z" fill="#00855D"/>
<path d="M21.1667 13.5397H18.9079C18.5181 13.5397 18.202 13.8557 18.202 14.2456C18.202 14.6354 18.5181 14.9514 18.9079 14.9514H21.1667C21.5566 14.9514 21.8726 14.6354 21.8726 14.2456C21.8726 13.8557 21.5566 13.5397 21.1667 13.5397Z" fill="#00855D"/>
</g>
<defs>
<clipPath id="clip0_12_862">
<rect width="24" height="24" fill="white"/>
</clipPath>
</defs>
</svg>
