<svg width="25" height="24" viewBox="0 0 25 24" fill="none" xmlns="http://www.w3.org/2000/svg">
<mask id="mask0_12_204" style="mask-type:luminance" maskUnits="userSpaceOnUse" x="0" y="0" width="25" height="24">
<path d="M0.25 1.90735e-06H24.25V24H0.25V1.90735e-06Z" fill="white"/>
</mask>
<g mask="url(#mask0_12_204)">
<path d="M10.3671 0.70293C11.6139 0.70293 12.6265 1.71552 12.6265 2.9623C12.6265 4.20909 11.6139 5.22168 10.3671 5.22168C9.12033 5.22168 8.10779 4.20909 8.10779 2.9623C8.10779 1.71552 9.12033 0.70293 10.3671 0.70293Z" stroke="#00855D" stroke-miterlimit="10" stroke-linecap="round" stroke-linejoin="round"/>
<path d="M14.3162 13.5062H15.9783C17.2748 13.5062 18.426 14.3357 18.836 15.5659C19.6539 18.0197 20.9109 21.7905 20.9109 21.7905H17.1453L15.639 17.2718" stroke="#00855D" stroke-miterlimit="10" stroke-linecap="round" stroke-linejoin="round"/>
<path d="M4.34216 6.72832H4.34296C6.00623 6.72832 7.35468 8.07682 7.35468 9.74004V11.2471" stroke="#00855D" stroke-miterlimit="10" stroke-linecap="round" stroke-linejoin="round"/>
<path d="M11.8734 9.74041V7.48029C11.8734 6.88118 11.6354 6.30691 11.2118 5.8833C10.7882 5.45965 10.2139 5.22166 9.6148 5.22166H9.6133C9.01419 5.22166 8.43993 5.45965 8.01632 5.8833C7.59266 6.30691 7.35468 6.88118 7.35468 7.48029V11.2466C7.35468 12.0785 8.02907 12.7529 8.86091 12.7529H14.1328C14.9646 12.7529 15.639 12.0785 15.639 11.2466C15.639 10.4149 14.9646 9.74041 14.1328 9.74041H10.3671" stroke="#00855D" stroke-miterlimit="10" stroke-linecap="round" stroke-linejoin="round"/>
<path d="M7.41264 11.6622C7.59302 12.2922 8.17333 12.7531 8.86089 12.7531H13.5977C14.849 13.8576 15.639 15.473 15.639 17.2719C15.639 20.5973 12.9394 23.2969 9.61403 23.2969C6.28863 23.2969 3.58905 20.5973 3.58905 17.2719C3.58905 14.7233 5.17474 12.5423 7.41264 11.6622Z" stroke="#00855D" stroke-miterlimit="10" stroke-linecap="round" stroke-linejoin="round"/>
</g>
</svg>
