<svg width="23" height="25" viewBox="0 0 23 25" fill="none" xmlns="http://www.w3.org/2000/svg">
<path d="M18.8125 7.09375V23.5938H1V2.40625C1 1.62958 1.62958 1 2.40625 1H20.2188" stroke="#00855D" stroke-width="1.5" stroke-miterlimit="10" stroke-linecap="round" stroke-linejoin="round"/>
<path d="M5.21875 8.5V3.82127L8.38202 8.40189C8.44066 8.48659 8.50347 8.44511 8.50347 8.34208L8.45969 3.8125" stroke="#00855D" stroke-width="1.5" stroke-miterlimit="10" stroke-linecap="round" stroke-linejoin="round"/>
<path d="M6.18109 11.3125H4.28125V16" stroke="#00855D" stroke-width="1.5" stroke-miterlimit="10" stroke-linecap="round" stroke-linejoin="round"/>
<path d="M4.28125 13.6118H6.0302" stroke="#00855D" stroke-width="1.5" stroke-miterlimit="10" stroke-linecap="round" stroke-linejoin="round"/>
<path d="M10.9439 11.3125H8.96875V16H10.9439" stroke="#00855D" stroke-width="1.5" stroke-miterlimit="10" stroke-linecap="round" stroke-linejoin="round"/>
<path d="M10.7982 13.6562H8.96875" stroke="#00855D" stroke-width="1.5" stroke-miterlimit="10" stroke-linecap="round" stroke-linejoin="round"/>
<path d="M15.6314 11.3125H13.6562V16H15.6314" stroke="#00855D" stroke-width="1.5" stroke-miterlimit="10" stroke-linecap="round" stroke-linejoin="round"/>
<path d="M15.4857 13.6562H13.6562" stroke="#00855D" stroke-width="1.5" stroke-miterlimit="10" stroke-linecap="round" stroke-linejoin="round"/>
<path d="M13.1875 8.5C14.4819 8.5 15.5312 7.45067 15.5312 6.15625C15.5312 4.86183 14.4819 3.8125 13.1875 3.8125C11.8931 3.8125 10.8438 4.86183 10.8438 6.15625C10.8438 7.45067 11.8931 8.5 13.1875 8.5Z" stroke="#00855D" stroke-width="1.5" stroke-miterlimit="10" stroke-linecap="round" stroke-linejoin="round"/>
<path d="M15.5312 19.2812H4.28125" stroke="#00855D" stroke-width="1.5" stroke-miterlimit="10" stroke-linecap="round" stroke-linejoin="round"/>
<path d="M21.625 7.09375H18.8125V2.40625C18.8125 1.62958 19.4421 1 20.2188 1C20.9954 1 21.625 1.62958 21.625 2.40625V7.09375Z" stroke="#00855D" stroke-width="1.5" stroke-miterlimit="10" stroke-linecap="round" stroke-linejoin="round"/>
</svg>
