<svg width="25" height="24" viewBox="0 0 25 24" fill="none" xmlns="http://www.w3.org/2000/svg">
<g clip-path="url(#clip0_12_272)">
<path d="M11.1406 12.7031C11.529 12.7031 11.8438 12.3883 11.8438 12C11.8438 11.6117 11.529 11.2969 11.1406 11.2969C10.7523 11.2969 10.4375 11.6117 10.4375 12C10.4375 12.3883 10.7523 12.7031 11.1406 12.7031Z" fill="#005A3F"/>
<path d="M24.5 15.8906C24.5 15.7957 24.4808 15.7018 24.4435 15.6144L20.2623 5.82389C20.2235 5.73305 20.166 5.65139 20.0935 5.58427C17.6728 3.34162 14.577 2.15625 11.1406 2.15625C5.82486 2.15625 0.5 5.9932 0.5 12.7031C0.5 15.911 1.81784 19.322 3.88691 21.2717C4.27836 21.6406 4.79145 21.8438 5.33164 21.8438H19.5983C20.0221 21.8438 20.4276 21.7207 20.771 21.4877C23.2841 19.7835 24.5 17.355 24.5 15.8906ZM11.1406 9.89062C12.3037 9.89062 13.25 10.8369 13.25 12C13.25 13.1631 12.3037 14.1094 11.1406 14.1094C9.97752 14.1094 9.03125 13.1631 9.03125 12C9.03125 10.8369 9.97752 9.89062 11.1406 9.89062ZM13.1168 9.09408L19.2358 7.00083L22.8113 15.3731L13.7092 14.3968C15.1826 12.819 14.8998 10.3105 13.1168 9.09408ZM19.9818 20.3239C19.8722 20.3982 19.7396 20.4375 19.5983 20.4375H5.33164C5.15136 20.4375 4.98083 20.3703 4.85131 20.2483C3.08975 18.5885 1.90625 15.5563 1.90625 12.7031C1.90625 6.76608 6.66402 3.5625 11.1406 3.5625C13.8008 3.5625 16.2285 4.35262 18.2309 5.85834C18.1534 5.88487 10.07 8.64937 10.019 8.66892C8.62897 9.13828 7.625 10.4536 7.625 12C7.625 13.759 8.93811 15.3038 10.8054 15.4997L22.9109 16.7981C22.5125 17.9096 21.4791 19.3084 19.9818 20.3239Z" fill="#005A3F"/>
</g>
<defs>
<clipPath id="clip0_12_272">
<rect width="24" height="24" fill="white" transform="translate(0.5)"/>
</clipPath>
</defs>
</svg>
