<svg width="25" height="24" viewBox="0 0 25 24" fill="none" xmlns="http://www.w3.org/2000/svg">
<path d="M19.3493 7.92743V9.23055V12.5549H13.3849V9.23055V7.92743" stroke="#00855D" stroke-miterlimit="10" stroke-linecap="round" stroke-linejoin="round"/>
<path d="M13.3849 5.09949H16.3671H19.3493" stroke="#00855D" stroke-miterlimit="10" stroke-linecap="round" stroke-linejoin="round"/>
<path d="M16.3671 5.09937C15.4367 5.09937 14.6825 4.34515 14.6825 3.41478V2.38771C14.6825 1.45734 15.4367 0.703125 16.3671 0.703125C17.2974 0.703125 18.0517 1.45734 18.0517 2.38771V3.41478C18.0517 4.34515 17.2974 5.09937 16.3671 5.09937Z" stroke="#00855D" stroke-miterlimit="10" stroke-linecap="round" stroke-linejoin="round"/>
<path d="M19.3493 12.5548V21.8057C19.3493 22.6292 18.6817 23.2968 17.8582 23.2968C17.0347 23.2968 16.3671 22.6292 16.3671 21.8057V12.5548H19.3493Z" stroke="#00855D" stroke-miterlimit="10" stroke-linecap="round" stroke-linejoin="round"/>
<path d="M13.385 12.5548V17.9551C13.385 18.7786 14.0526 19.4462 14.8761 19.4462C15.6996 19.4462 16.3672 18.7786 16.3672 17.9551V12.5548H13.385Z" stroke="#00855D" stroke-miterlimit="10" stroke-linecap="round" stroke-linejoin="round"/>
<path d="M13.385 16.3738H16.3671" stroke="#00855D" stroke-miterlimit="10" stroke-linecap="round" stroke-linejoin="round"/>
<path d="M19.3492 7.92744V12.5549V12.6219C19.3492 13.3987 19.9788 14.0282 20.7555 14.0282C21.5322 14.0282 22.1617 13.3987 22.1617 12.6219V7.91197C22.1617 7.13526 21.8467 6.43214 21.3381 5.92308C20.8291 5.41402 20.126 5.09949 19.3492 5.09949" stroke="#00855D" stroke-miterlimit="10" stroke-linecap="round" stroke-linejoin="round"/>
<path d="M13.3849 7.92744V12.5549V12.6219C13.3849 13.3987 12.7554 14.0282 11.9787 14.0282C11.202 14.0282 10.5724 13.3987 10.5724 12.6219V7.91197C10.5724 7.13526 10.8874 6.43214 11.396 5.92308C11.9051 5.41402 12.6082 5.09949 13.3849 5.09949" stroke="#00855D" stroke-miterlimit="10" stroke-linecap="round" stroke-linejoin="round"/>
<path d="M6.9434 12.2122L5.53716 13.6184L4.13092 12.2122V7.05597H6.9434V12.2122Z" stroke="#00855D" stroke-miterlimit="10" stroke-linecap="round" stroke-linejoin="round"/>
<path d="M5.53717 13.6184V23.2969" stroke="#00855D" stroke-miterlimit="10" stroke-linecap="round" stroke-linejoin="round"/>
<path d="M4.43066 23.2968H6.64367" stroke="#00855D" stroke-miterlimit="10" stroke-linecap="round" stroke-linejoin="round"/>
<path d="M3.3382 7.05597H7.73617" stroke="#00855D" stroke-miterlimit="10" stroke-linecap="round" stroke-linejoin="round"/>
<path d="M6.9434 9.86853H4.13092" stroke="#00855D" stroke-miterlimit="10" stroke-linecap="round" stroke-linejoin="round"/>
</svg>
