<svg width="24" height="24" viewBox="0 0 24 24" fill="none" xmlns="http://www.w3.org/2000/svg">
<g clip-path="url(#clip0_136_8514)">
<path d="M23.3125 9.53184C22.5771 8.79637 21.4967 8.664 20.6423 9.07303L14.9254 3.35611C15.3342 2.50196 15.2024 1.42159 14.4666 0.685932C13.5521 -0.228691 12.0639 -0.228597 11.1494 0.685932L7.2794 4.55597C6.36276 5.47256 6.36252 6.95639 7.2794 7.87317C7.99808 8.59186 9.0733 8.74781 9.94864 8.33086L11.1494 9.5317L7.83224 12.8489C7.52708 12.5437 7.03176 12.5436 6.72651 12.8489L0.916785 18.6587C-0.305478 19.8809 -0.305712 21.8592 0.916785 23.0816C2.139 24.3039 4.11736 24.3039 5.33967 23.0816L11.1495 17.2718C11.4546 16.9668 11.4548 16.4714 11.1495 16.1661L14.4667 12.8489L15.6665 14.0487C15.2576 14.903 15.3896 15.9834 16.1253 16.719C17.0398 17.6335 18.5279 17.6336 19.4425 16.719L23.3125 12.8489C24.2291 11.9323 24.2293 10.4485 23.3125 9.53184ZM9.49086 6.76739C9.18604 7.07231 8.68991 7.07222 8.38508 6.76739C8.07946 6.46172 8.07946 5.96728 8.38508 5.66161L12.2551 1.79157C12.5601 1.4867 13.056 1.48674 13.3609 1.79157C13.6665 2.09724 13.6665 2.59168 13.3609 2.8973L9.49086 6.76739ZM4.23393 21.9759C3.62283 22.587 2.63367 22.587 2.02252 21.9759C1.41132 21.3647 1.41136 20.3756 2.02252 19.7644L7.27944 14.5075L9.49091 16.7189L4.23393 21.9759ZM10.0438 15.0604L8.93797 13.9546L12.2552 10.6374L13.3609 11.7432L10.0438 15.0604ZM11.1494 7.32028L13.9137 4.55597L19.4424 10.0846L16.6781 12.8489L11.1494 7.32028ZM22.2067 11.7432L18.3367 15.6132C18.0311 15.9188 17.5366 15.9189 17.2309 15.6132C16.9253 15.3076 16.9253 14.8131 17.2309 14.5075L21.101 10.6374C21.4065 10.3319 21.9011 10.3318 22.2067 10.6374C22.5123 10.9431 22.5123 11.4375 22.2067 11.7432Z" fill="#00855D"/>
<path d="M23.1961 22.4341H22.4142V21.6523C22.4142 20.3589 21.3619 19.3066 20.0686 19.3066H13.8137C12.5203 19.3066 11.468 20.3589 11.468 21.6523V22.4341H10.6862C10.2544 22.4341 9.9043 22.7842 9.9043 23.216C9.9043 23.6478 10.2544 23.9979 10.6862 23.9979C10.7967 23.9979 23.0766 23.9979 23.1961 23.9979C23.6279 23.9979 23.9779 23.6478 23.9779 23.216C23.9779 22.7842 23.6279 22.4341 23.1961 22.4341ZM20.8505 22.4341H13.0318V21.6523C13.0318 21.2212 13.3826 20.8704 13.8137 20.8704H20.0686C20.4997 20.8704 20.8505 21.2212 20.8505 21.6523V22.4341Z" fill="#00855D"/>
</g>
<defs>
<clipPath id="clip0_136_8514">
<rect width="24" height="24" fill="white"/>
</clipPath>
</defs>
</svg>
