<svg width="738" height="167" viewBox="0 0 738 167" fill="none" xmlns="http://www.w3.org/2000/svg">
<g style="mix-blend-mode:overlay">
<path d="M81.5856 166.775H0V160.713C1.61778 161.186 2.83112 161.186 3.64001 160.713C4.65112 160.555 5.66223 159.969 6.67335 158.955C7.68446 157.941 8.17878 156.341 8.17878 154.178V12.5966C8.17878 10.253 7.66199 8.58549 6.67335 7.57145C5.66223 6.55742 4.65112 5.90393 3.64001 5.58845C2.83112 5.27298 1.61778 5.27298 0 5.58845V0H36.6922V5.58845C35.0744 5.27298 33.6588 5.27298 32.4455 5.58845C31.6366 5.90393 30.8277 6.55742 30.0188 7.57145C29.2099 8.58549 28.8055 10.253 28.8055 12.5966V160.691H57.3189C61.5656 160.691 64.8011 159.789 67.0256 158.009C69.25 156.229 70.8678 154.088 71.8789 151.587C72.8901 148.95 73.4967 145.841 73.6989 142.258H81.5856V166.775Z" fill="white"/>
<path d="M186.853 154.404C187.258 156.589 188.111 158.144 189.437 159.068C190.74 159.992 192.223 160.623 193.841 160.939C195.459 161.254 197.279 161.254 199.301 160.939V166.775H154.7V160.939C156.52 161.254 158.138 161.254 159.553 160.939C160.564 160.623 161.463 160.015 162.272 159.068C163.081 158.144 163.283 156.589 162.879 154.404C162.879 154.088 162.317 151.339 161.216 146.134C160.092 140.928 158.744 134.055 157.126 125.492H118.3C116.277 134.033 114.705 140.928 113.604 146.134C112.48 151.339 111.941 154.111 111.941 154.404C111.334 156.589 111.379 158.144 112.098 159.068C112.795 159.992 113.671 160.623 114.682 160.939C115.896 161.254 117.513 161.254 119.536 160.939V166.775H90.4154V160.939C92.2355 161.254 94.0555 161.254 95.8755 160.939C97.4932 160.623 98.9537 160.015 100.279 159.068C101.583 158.144 102.549 156.589 103.155 154.404C103.155 154.246 103.65 151.947 104.661 147.531C105.672 143.092 107.043 137.278 108.75 130.044C110.458 122.811 112.435 114.609 114.66 105.437C116.884 96.2658 119.109 86.869 121.333 77.2245L139.533 0.721245H155.014C160.879 29.1818 166.137 54.6002 170.788 76.9766C172.81 86.6212 174.72 96.0179 176.54 105.189C178.36 114.361 180.023 122.563 181.55 129.796C183.056 137.03 184.337 142.889 185.348 147.396C186.359 151.902 186.853 154.246 186.853 154.404ZM119.513 119.408H156.205C154.992 113.031 153.621 106.203 152.116 98.8797C150.61 91.5787 149.083 84.2326 147.577 76.8414C146.072 69.4502 144.544 62.2618 143.038 55.2763C141.533 48.2907 140.162 41.8234 138.949 35.9195C137.331 41.8234 135.713 48.2907 134.096 55.2763C132.478 62.2618 130.815 69.4727 129.085 76.8414C127.355 84.2326 125.692 91.5787 124.074 98.8797C122.457 106.181 120.929 113.031 119.536 119.408H119.513Z" fill="white"/>
<path d="M292.099 166.775H210.514V160.713C212.131 161.186 213.345 161.186 214.154 160.713C215.165 160.555 216.176 159.969 217.187 158.955C218.198 157.941 218.692 156.341 218.692 154.178V12.5966C218.692 10.253 218.176 8.58549 217.187 7.57145C216.176 6.55742 215.165 5.90393 214.154 5.58845C213.345 5.27298 212.131 5.27298 210.514 5.58845V0H247.206V5.58845C245.588 5.27298 244.173 5.27298 242.959 5.58845C242.15 5.90393 241.341 6.55742 240.533 7.57145C239.724 8.58549 239.319 10.253 239.319 12.5966V160.691H267.833C272.079 160.691 275.315 159.789 277.539 158.009C279.764 156.229 281.382 154.088 282.393 151.587C283.404 148.95 284.01 145.841 284.213 142.258H292.099V166.775Z" fill="white"/>
<path d="M397.368 154.404C397.772 156.589 398.626 158.144 399.952 159.068C401.255 159.992 402.738 160.623 404.356 160.939C405.974 161.254 407.794 161.254 409.816 160.939V166.775H365.215V160.939C367.035 161.254 368.652 161.254 370.068 160.939C371.079 160.623 371.978 160.015 372.787 159.068C373.596 158.144 373.798 156.589 373.393 154.404C373.393 154.088 372.832 151.339 371.731 146.134C370.607 140.928 369.259 134.055 367.641 125.492H328.815C326.792 134.033 325.219 140.928 324.118 146.134C322.995 151.339 322.456 154.111 322.456 154.404C321.849 156.589 321.894 158.144 322.613 159.068C323.31 159.992 324.186 160.623 325.197 160.939C326.41 161.254 328.028 161.254 330.05 160.939V166.775H300.93V160.939C302.75 161.254 304.57 161.254 306.39 160.939C308.008 160.623 309.469 160.015 310.794 159.068C312.097 158.144 313.064 156.589 313.67 154.404C313.67 154.246 314.165 151.947 315.176 147.531C316.187 143.092 317.557 137.278 319.265 130.044C320.973 122.811 322.95 114.609 325.175 105.437C327.399 96.2658 329.623 86.869 331.848 77.2245L350.048 0.721245H365.529C371.394 29.1818 376.651 54.6002 381.303 76.9766C383.325 86.6212 385.235 96.0179 387.077 105.189C388.897 114.361 390.56 122.563 392.088 129.796C393.616 137.03 394.874 142.889 395.885 147.396C396.896 151.902 397.413 154.246 397.413 154.404H397.368ZM330.028 119.408H366.72C365.507 113.031 364.136 106.203 362.631 98.8797C361.125 91.5787 359.597 84.2326 358.092 76.8414C356.586 69.4502 355.059 62.2618 353.553 55.2763C352.048 48.2907 350.677 41.8234 349.464 35.9195C347.846 41.8234 346.228 48.2907 344.61 55.2763C342.993 62.2618 341.33 69.4727 339.6 76.8414C337.87 84.2326 336.207 91.5787 334.589 98.8797C332.971 106.181 331.443 113.031 330.05 119.408H330.028Z" fill="white"/>
<path d="M496.838 0.248095H523.531V6.08442C521.711 5.76894 520.183 5.76894 518.97 6.08442C517.959 6.3999 516.993 7.05339 516.094 8.06742C515.173 9.08146 514.723 10.6814 514.723 12.8446V166.775H489.243L438.89 32.9V154.178C438.89 156.364 439.339 157.919 440.26 158.843C441.159 159.767 442.125 160.398 443.137 160.713C444.35 161.029 445.855 161.029 447.698 160.713V166.775H421.004V160.713C422.622 161.029 424.038 161.029 425.251 160.713C426.262 160.398 427.273 159.789 428.284 158.843C429.296 157.919 429.79 156.364 429.79 154.178V12.8221C429.79 10.6363 429.273 9.05892 428.284 8.04489C427.273 7.03086 426.262 6.37737 425.251 6.06189C424.038 5.74641 422.622 5.74641 421.004 6.06189V0.225561H451.944L505.623 142.033V12.8221C505.623 10.6363 505.107 9.05892 504.118 8.04489C503.107 7.03086 502.096 6.37737 501.085 6.06189C499.871 5.74641 498.456 5.74641 496.838 6.06189V0.225561V0.248095Z" fill="white"/>
<path d="M636.372 34.2968V132.951C636.372 137.142 635.406 141.266 633.496 145.322C631.564 149.378 628.688 152.984 624.846 156.161C621.004 159.361 616.195 161.907 610.443 163.868C604.691 165.806 597.95 166.775 590.266 166.775H587.682C586.176 166.775 584.289 166.82 582.064 166.887C579.84 166.955 577.368 167 574.627 167H543.844V160.938C545.26 161.254 546.586 161.254 547.799 160.938C548.81 160.623 549.709 160.014 550.518 159.068C551.327 158.144 551.731 156.589 551.731 154.403V13.0697C551.731 10.8839 551.327 9.30649 550.518 8.29246C549.709 7.27842 548.788 6.62493 547.799 6.30946C546.586 5.99398 545.26 5.99398 543.844 6.30946V0.473128H590.266C597.95 0.473128 604.668 1.44209 610.443 3.38002C616.218 5.31796 621.004 7.88684 624.846 11.0867C628.688 14.2865 631.564 17.892 633.496 21.9256C635.406 25.9592 636.372 30.0829 636.372 34.2968ZM572.672 6.5348V160.465H590.872C594.31 160.15 597.838 159.429 601.478 158.257C605.118 157.085 608.241 155.192 610.87 152.533C614.105 148.95 615.836 144.06 616.038 137.841V29.159C616.038 26.3648 615.521 23.6382 614.51 21.0017C613.094 17.7342 611.117 15.1428 608.6 13.1824C606.061 11.2444 603.298 9.75717 600.264 8.74314C597.231 7.7291 594.153 7.12068 591.007 6.87281C587.861 6.64747 585.098 6.51226 582.671 6.51226H572.65L572.672 6.5348Z" fill="white"/>
<path d="M738 142.28V166.775H653.359V160.713C654.976 161.186 656.19 161.186 656.999 160.713C658.01 160.555 658.976 159.969 659.875 158.955C660.773 157.941 661.245 156.341 661.245 154.178V12.5966C661.245 10.253 660.796 8.58549 659.875 7.57145C658.953 6.55742 658.01 5.90393 656.999 5.58845C656.19 5.27298 654.976 5.27298 653.359 5.58845V0H738V24.4945H730.113C729.911 20.9116 729.304 17.7343 728.293 14.9401C727.282 12.5966 725.62 10.3882 723.283 8.29254C720.946 6.19687 717.778 5.13777 713.733 5.13777H682.187V80.6945H703.42C706.049 80.6945 708.071 80.1537 709.487 79.0721C710.902 77.9905 711.913 76.7286 712.52 75.3314C713.329 73.6189 713.733 71.6809 713.733 69.4951H720.721V98.181H713.733C713.733 95.9952 713.329 94.1474 712.52 92.5926C711.913 91.0377 710.902 89.6857 709.487 88.5139C708.071 87.3421 706.049 86.7562 703.42 86.7562H682.187V161.164H713.733C717.778 161.164 720.968 160.24 723.283 158.37C725.597 156.499 727.282 154.336 728.293 151.835C729.304 149.04 729.911 145.841 730.113 142.28H738Z" fill="white"/>
</g>
</svg>
