<svg width="1440" height="316" viewBox="0 0 1440 316" fill="none" xmlns="http://www.w3.org/2000/svg">
<g style="mix-blend-mode:overlay" opacity="0.89">
<path d="M158.302 325.56H-1V313.727C2.15884 314.651 4.52796 314.651 6.10738 313.727C8.08166 313.419 10.0559 312.276 12.0302 310.296C14.0045 308.317 14.9697 305.194 14.9697 300.971V24.5897C14.9697 20.0149 13.9606 16.7597 12.0302 14.7802C10.0559 12.8007 8.08166 11.525 6.10738 10.9092C4.52796 10.2934 2.15884 10.2934 -1 10.9092V0H70.6442V10.9092C67.4854 10.2934 64.7214 10.2934 62.3523 10.9092C60.7729 11.525 59.1934 12.8007 57.614 14.7802C56.0346 16.7597 55.2449 20.0149 55.2449 24.5897V313.683H110.919C119.211 313.683 125.529 311.924 129.872 308.449C134.216 304.974 137.375 300.795 139.349 295.912C141.323 290.765 142.508 284.695 142.903 277.701H158.302V325.56Z" fill="url(#paint0_linear_930_4553)"/>
<path d="M363.845 301.411C364.635 305.678 366.302 308.713 368.89 310.516C371.435 312.32 374.33 313.552 377.489 314.168C380.648 314.783 384.202 314.783 388.15 314.168V325.561H301.063V314.168C304.617 314.783 307.775 314.783 310.539 314.168C312.514 313.552 314.269 312.364 315.848 310.516C317.427 308.713 317.822 305.678 317.033 301.411C317.033 300.795 315.936 295.428 313.786 285.267C311.592 275.106 308.96 261.689 305.801 244.973H229.989C226.04 261.645 222.969 275.106 220.82 285.267C218.626 295.428 217.573 300.839 217.573 301.411C216.388 305.678 216.476 308.713 217.88 310.516C219.24 312.32 220.951 313.552 222.925 314.168C225.295 314.783 228.453 314.783 232.402 314.168V325.561H175.543V314.168C179.097 314.783 182.65 314.783 186.204 314.168C189.363 313.552 192.215 312.364 194.803 310.516C197.348 308.713 199.234 305.678 200.419 301.411C200.419 301.103 201.384 296.616 203.358 287.994C205.333 279.328 208.009 267.979 211.343 253.859C214.677 239.739 218.538 223.727 222.882 205.823C227.225 187.92 231.568 169.577 235.912 150.75L271.449 1.40794H301.677C313.128 56.9657 323.394 106.585 332.476 150.266C336.424 169.093 340.154 187.436 343.707 205.34C347.261 223.243 350.507 239.255 353.491 253.375C356.43 267.496 358.931 278.933 360.905 287.73C362.88 296.528 363.845 301.103 363.845 301.411ZM232.358 233.096H304.002C301.633 220.648 298.957 207.319 296.018 193.023C293.078 178.77 290.095 164.43 287.155 150.002C284.216 135.573 281.232 121.541 278.293 107.905C275.353 94.2681 272.677 81.6433 270.308 70.1183C267.149 81.6433 263.99 94.2681 260.832 107.905C257.673 121.541 254.426 135.617 251.048 150.002C247.67 164.43 244.423 178.77 241.264 193.023C238.105 207.275 235.122 220.648 232.402 233.096H232.358Z" fill="url(#paint1_linear_930_4553)"/>
<path d="M569.346 325.56H410.044V313.727C413.203 314.651 415.572 314.651 417.151 313.727C419.125 313.419 421.1 312.276 423.074 310.296C425.048 308.317 426.013 305.194 426.013 300.971V24.5897C426.013 20.0149 425.004 16.7597 423.074 14.7802C421.1 12.8007 419.125 11.525 417.151 10.9092C415.572 10.2934 413.203 10.2934 410.044 10.9092V0H481.688V10.9092C478.529 10.2934 475.765 10.2934 473.396 10.9092C471.817 11.525 470.237 12.8007 468.658 14.7802C467.078 16.7597 466.289 20.0149 466.289 24.5897V313.683H521.963C530.255 313.683 536.573 311.924 540.916 308.449C545.26 304.974 548.418 300.795 550.393 295.912C552.367 290.765 553.552 284.695 553.946 277.701H569.346V325.56Z" fill="url(#paint2_linear_930_4553)"/>
<path d="M774.891 301.411C775.68 305.678 777.348 308.713 779.936 310.516C782.481 312.32 785.376 313.552 788.535 314.168C791.694 314.783 795.248 314.783 799.196 314.168V325.561H712.109V314.168C715.662 314.783 718.821 314.783 721.585 314.168C723.56 313.552 725.314 312.364 726.894 310.516C728.473 308.713 728.868 305.678 728.078 301.411C728.078 300.795 726.982 295.428 724.832 285.267C722.638 275.106 720.006 261.689 716.847 244.973H641.035C637.086 261.645 634.015 275.106 631.865 285.267C629.672 295.428 628.619 300.839 628.619 301.411C627.434 305.678 627.522 308.713 628.926 310.516C630.286 312.32 631.997 313.552 633.971 314.168C636.34 314.783 639.499 314.783 643.448 314.168V325.561H586.589V314.168C590.142 314.783 593.696 314.783 597.25 314.168C600.409 313.552 603.26 312.364 605.849 310.516C608.393 308.713 610.28 305.678 611.465 301.411C611.465 301.103 612.43 296.616 614.404 287.994C616.378 279.328 619.055 267.979 622.389 253.859C625.723 239.739 629.584 223.727 633.927 205.823C638.271 187.92 642.614 169.577 646.958 150.75L682.495 1.40794H712.723C724.174 56.9657 734.44 106.585 743.522 150.266C747.47 169.093 751.199 187.436 754.797 205.34C758.351 223.243 761.597 239.255 764.581 253.375C767.564 267.496 770.021 278.933 771.995 287.73C773.969 296.528 774.978 301.103 774.978 301.411H774.891ZM643.404 233.096H715.048C712.679 220.648 710.003 207.319 707.063 193.023C704.124 178.77 701.141 164.43 698.201 150.002C695.262 135.573 692.278 121.541 689.339 107.905C686.399 94.2681 683.723 81.6433 681.354 70.1183C678.195 81.6433 675.036 94.2681 671.877 107.905C668.719 121.541 665.472 135.617 662.094 150.002C658.716 164.43 655.469 178.77 652.31 193.023C649.151 207.275 646.168 220.648 643.448 233.096H643.404Z" fill="url(#paint3_linear_930_4553)"/>
<path d="M969.113 0.484306H1021.23V11.8774C1017.68 11.2615 1014.7 11.2615 1012.33 11.8774C1010.35 12.4932 1008.47 13.7689 1006.71 15.7484C1004.91 17.7279 1004.04 20.8511 1004.04 25.074V325.561H954.284L855.965 64.2239V300.971C855.965 305.238 856.843 308.273 858.641 310.077C860.396 311.88 862.283 313.112 864.257 313.728C866.626 314.344 869.566 314.344 873.163 313.728V325.561H821.042V313.728C824.201 314.344 826.965 314.344 829.334 313.728C831.309 313.112 833.283 311.924 835.257 310.077C837.231 308.273 838.197 305.238 838.197 300.971V25.03C838.197 20.7631 837.188 17.6839 835.257 15.7044C833.283 13.7249 831.309 12.4492 829.334 11.8334C826.965 11.2175 824.201 11.2175 821.042 11.8334V0.440316H881.455L986.267 277.261V25.03C986.267 20.7631 985.258 17.6839 983.328 15.7044C981.354 13.7249 979.379 12.4492 977.405 11.8334C975.036 11.2175 972.272 11.2175 969.113 11.8334V0.440316V0.484306Z" fill="url(#paint4_linear_930_4553)"/>
<path d="M1241.56 66.9506V259.533C1241.56 267.715 1239.68 275.765 1235.95 283.683C1232.18 291.601 1226.56 298.639 1219.06 304.841C1211.56 311.088 1202.17 316.059 1190.94 319.886C1179.7 323.669 1166.54 325.56 1151.54 325.56H1146.49C1143.55 325.56 1139.87 325.648 1135.52 325.78C1131.18 325.912 1126.35 326 1121 326H1060.9V314.167C1063.66 314.783 1066.25 314.783 1068.62 314.167C1070.59 313.551 1072.35 312.364 1073.93 310.516C1075.51 308.712 1076.3 305.677 1076.3 301.41V25.5133C1076.3 21.2464 1075.51 18.1672 1073.93 16.1877C1072.35 14.2082 1070.55 12.9325 1068.62 12.3167C1066.25 11.7008 1063.66 11.7008 1060.9 12.3167V0.923591H1151.54C1166.54 0.923591 1179.66 2.8151 1190.94 6.59813C1202.21 10.3812 1211.56 15.3959 1219.06 21.6423C1226.56 27.8887 1232.18 34.9268 1235.95 42.8008C1239.68 50.6748 1241.56 58.7247 1241.56 66.9506ZM1117.19 12.7566V313.243H1152.72C1159.43 312.627 1166.32 311.22 1173.43 308.932C1180.54 306.645 1186.64 302.95 1191.77 297.759C1198.09 290.765 1201.46 281.22 1201.86 269.079V56.9212C1201.86 51.4666 1200.85 46.144 1198.88 40.9973C1196.11 34.6189 1192.25 29.5602 1187.34 25.7332C1182.38 21.9502 1176.98 19.0469 1171.06 17.0674C1165.14 15.0879 1159.13 13.9003 1152.99 13.4164C1146.84 12.9765 1141.45 12.7126 1136.71 12.7126H1117.14L1117.19 12.7566Z" fill="url(#paint5_linear_930_4553)"/>
<path d="M1440 277.745V325.56H1274.73V313.727C1277.89 314.651 1280.26 314.651 1281.84 313.727C1283.81 313.419 1285.7 312.276 1287.45 310.296C1289.21 308.317 1290.13 305.194 1290.13 300.971V24.5897C1290.13 20.0149 1289.25 16.7597 1287.45 14.7802C1285.66 12.8007 1283.81 11.525 1281.84 10.9092C1280.26 10.2934 1277.89 10.2934 1274.73 10.9092V0H1440V47.8157H1424.6C1424.21 40.8215 1423.02 34.6191 1421.05 29.1645C1419.07 24.5897 1415.83 20.2788 1411.26 16.1878C1406.7 12.0969 1400.51 10.0294 1392.62 10.0294H1331.02V157.523H1372.48C1377.61 157.523 1381.56 156.468 1384.33 154.356C1387.09 152.245 1389.06 149.781 1390.25 147.054C1391.83 143.711 1392.62 139.928 1392.62 135.661H1406.26V191.659H1392.62C1392.62 187.392 1391.83 183.785 1390.25 180.75C1389.06 177.714 1387.09 175.075 1384.33 172.788C1381.56 170.5 1377.61 169.356 1372.48 169.356H1331.02V314.607H1392.62C1400.51 314.607 1406.74 312.804 1411.26 309.153C1415.78 305.501 1419.07 301.279 1421.05 296.396C1423.02 290.941 1424.21 284.695 1424.6 277.745H1440Z" fill="url(#paint6_linear_930_4553)"/>
</g>
<defs>
<linearGradient id="paint0_linear_930_4553" x1="-1" y1="163" x2="1551.5" y2="163" gradientUnits="userSpaceOnUse">
<stop stop-color="white"/>
<stop offset="1" stop-color="white" stop-opacity="0.01"/>
</linearGradient>
<linearGradient id="paint1_linear_930_4553" x1="-1" y1="163" x2="1551.5" y2="163" gradientUnits="userSpaceOnUse">
<stop stop-color="white"/>
<stop offset="1" stop-color="white" stop-opacity="0.01"/>
</linearGradient>
<linearGradient id="paint2_linear_930_4553" x1="-1" y1="163" x2="1551.5" y2="163" gradientUnits="userSpaceOnUse">
<stop stop-color="white"/>
<stop offset="1" stop-color="white" stop-opacity="0.01"/>
</linearGradient>
<linearGradient id="paint3_linear_930_4553" x1="-1" y1="163" x2="1551.5" y2="163" gradientUnits="userSpaceOnUse">
<stop stop-color="white"/>
<stop offset="1" stop-color="white" stop-opacity="0.01"/>
</linearGradient>
<linearGradient id="paint4_linear_930_4553" x1="-1" y1="163" x2="1551.5" y2="163" gradientUnits="userSpaceOnUse">
<stop stop-color="white"/>
<stop offset="1" stop-color="white" stop-opacity="0.01"/>
</linearGradient>
<linearGradient id="paint5_linear_930_4553" x1="-1" y1="163" x2="1551.5" y2="163" gradientUnits="userSpaceOnUse">
<stop stop-color="white"/>
<stop offset="1" stop-color="white" stop-opacity="0.01"/>
</linearGradient>
<linearGradient id="paint6_linear_930_4553" x1="-1" y1="163" x2="1551.5" y2="163" gradientUnits="userSpaceOnUse">
<stop stop-color="white"/>
<stop offset="1" stop-color="white" stop-opacity="0.01"/>
</linearGradient>
</defs>
</svg>
