<svg width="100" height="102" viewBox="0 0 100 102" fill="none" xmlns="http://www.w3.org/2000/svg">
<path d="M48.7514 42.9051C49.0287 42.3794 49.7815 42.3794 50.0589 42.905L51.9645 46.517C52.0715 46.7197 52.2664 46.8613 52.4923 46.9004L56.5163 47.5967C57.1019 47.698 57.3345 48.4139 56.9203 48.8401L54.0741 51.7687C53.9143 51.933 53.8399 52.1622 53.8725 52.389L54.4538 56.4313C54.5384 57.0196 53.9294 57.462 53.3961 57.1998L49.7313 55.3978C49.5256 55.2967 49.2847 55.2967 49.079 55.3978L45.4142 57.1998C44.8809 57.462 44.2719 57.0196 44.3565 56.4313L44.9378 52.389C44.9704 52.1622 44.8959 51.933 44.7362 51.7687L41.8899 48.8401C41.4757 48.4139 41.7084 47.698 42.294 47.5967L46.318 46.9004C46.5438 46.8613 46.7388 46.7197 46.8457 46.517L48.7514 42.9051Z" fill="#9DB5AD"/>
<path d="M81.7993 45.2822C81.9511 46.3138 82.0538 47.3614 82.1051 48.4224L81.6057 48.4466C81.6306 48.9613 81.6431 49.4793 81.6431 50.0003C81.6431 50.5213 81.6306 51.0392 81.6057 51.554L82.1051 51.5781C82.0538 52.6392 81.9511 53.6868 81.7993 54.7184L81.3046 54.6456C81.1527 55.6782 80.951 56.6945 80.7019 57.692L81.187 57.8131C80.9306 58.84 80.6248 59.8472 80.2723 60.8323L79.8015 60.6638C79.4511 61.6431 79.0537 62.6001 78.6121 63.5322L79.0639 63.7463C78.6121 64.6999 78.1147 65.6278 77.5745 66.5271L77.1459 66.2697C76.6116 67.1593 76.0347 68.0205 75.4182 68.8504L75.8196 69.1486C75.1916 69.994 74.5231 70.8074 73.8169 71.5861L73.4465 71.2502C72.7506 72.0176 72.0176 72.7506 71.2502 73.4465L71.5861 73.8169C70.8074 74.5231 69.994 75.1916 69.1486 75.8196L68.8504 75.4182C68.0205 76.0347 67.1593 76.6116 66.2697 77.1459L66.5271 77.5745C65.6278 78.1147 64.6999 78.6121 63.7463 79.0639L63.5322 78.6121C62.6001 79.0537 61.6431 79.4511 60.6638 79.8015L60.8322 80.2723C59.8472 80.6248 58.84 80.9306 57.8131 81.187L57.692 80.7019C56.6945 80.951 55.6782 81.1527 54.6456 81.3046L54.7184 81.7993C53.6868 81.9511 52.6392 82.0538 51.5781 82.1051L51.554 81.6057C51.0392 81.6306 50.5213 81.6431 50.0003 81.6431C49.4793 81.6431 48.9613 81.6306 48.4466 81.6057L48.4224 82.1051C47.3614 82.0538 46.3138 81.9511 45.2822 81.7993L45.3549 81.3046C44.3224 81.1527 43.3061 80.951 42.3085 80.7019L42.1874 81.187C41.1606 80.9306 40.1533 80.6248 39.1683 80.2723L39.3368 79.8015C38.3575 79.4511 37.4004 79.0537 36.4684 78.6121L36.2543 79.0639C35.3006 78.6121 34.3727 78.1147 33.4734 77.5745L33.7309 77.1459C32.8413 76.6116 31.9801 76.0347 31.1501 75.4182L30.852 75.8196C30.0066 75.1916 29.1931 74.5231 28.4144 73.8169L28.7503 73.4465C27.983 72.7506 27.2499 72.0176 26.5541 71.2502L26.1837 71.5861C25.4775 70.8074 24.809 69.994 24.181 69.1486L24.5824 68.8504C23.9658 68.0205 23.389 67.1593 22.8547 66.2697L22.426 66.5271C21.8859 65.6278 21.3885 64.6999 20.9366 63.7463L21.3885 63.5322C20.9469 62.6001 20.5495 61.6431 20.199 60.6638L19.7283 60.8322C19.3758 59.8472 19.07 58.84 18.8136 57.8131L19.2987 57.692C19.0496 56.6945 18.8478 55.6782 18.6959 54.6456L18.2012 54.7184C18.0495 53.6868 17.9468 52.6392 17.8955 51.5781L18.3949 51.554C18.37 51.0392 18.3574 50.5213 18.3574 50.0003C18.3574 49.4793 18.37 48.9613 18.3949 48.4466L17.8955 48.4224C17.9468 47.3614 18.0495 46.3138 18.2012 45.2822L18.6959 45.3549C18.8478 44.3224 19.0496 43.3061 19.2987 42.3085L18.8136 42.1874C19.07 41.1606 19.3758 40.1533 19.7283 39.1683L20.199 39.3368C20.5495 38.3575 20.9469 37.4004 21.3885 36.4684L20.9366 36.2543C21.3885 35.3006 21.8859 34.3727 22.426 33.4734L22.8547 33.7309C23.389 32.8413 23.9658 31.9801 24.5824 31.1501L24.181 30.852C24.809 30.0066 25.4775 29.1931 26.1837 28.4144L26.5541 28.7503C27.25 27.983 27.983 27.2499 28.7503 26.5541L28.4144 26.1837C29.1931 25.4775 30.0066 24.809 30.852 24.181L31.1501 24.5824C31.9801 23.9658 32.8413 23.389 33.7309 22.8547L33.4734 22.426C34.3727 21.8859 35.3006 21.3885 36.2543 20.9366L36.4684 21.3885C37.4004 20.9469 38.3575 20.5495 39.3368 20.199L39.1683 19.7283C40.1533 19.3758 41.1606 19.07 42.1874 18.8136L42.3085 19.2987C43.3061 19.0496 44.3224 18.8478 45.3549 18.6959L45.2822 18.2012C46.3138 18.0495 47.3614 17.9468 48.4224 17.8955L48.4466 18.3949C48.9613 18.37 49.4793 18.3574 50.0003 18.3574C50.5213 18.3574 51.0392 18.37 51.554 18.3949L51.5781 17.8955C52.6392 17.9468 53.6868 18.0495 54.7184 18.2012L54.6456 18.6959C55.6782 18.8478 56.6945 19.0496 57.692 19.2987L57.8132 18.8136C58.84 19.07 59.8472 19.3758 60.8322 19.7283L60.6638 20.199C61.6431 20.5495 62.6001 20.9469 63.5322 21.3885L63.7463 20.9366C64.6999 21.3885 65.6278 21.8859 66.5271 22.426L66.2697 22.8547C67.1593 23.389 68.0205 23.9658 68.8504 24.5824L69.1486 24.181C69.994 24.809 70.8074 25.4775 71.5861 26.1837L71.2502 26.5541C72.0176 27.25 72.7506 27.983 73.4465 28.7503L73.8169 28.4144C74.5231 29.1931 75.1916 30.0066 75.8196 30.852L75.4182 31.1501C76.0347 31.9801 76.6116 32.8413 77.1459 33.7309L77.5745 33.4734C78.1147 34.3727 78.6121 35.3006 79.0639 36.2543L78.6121 36.4684C79.0537 37.4004 79.4511 38.3575 79.8015 39.3368L80.2723 39.1683C80.6248 40.1533 80.9306 41.1606 81.187 42.1874L80.7019 42.3085C80.951 43.3061 81.1527 44.3224 81.3046 45.3549L81.7993 45.2822Z" stroke="#9DB5AD" stroke-dasharray="3 3"/>
<path d="M59.9128 9.41749L59.9598 9.27514L60.2826 9.25508C60.4947 9.2512 60.6481 9.2017 60.7427 9.10658C60.8469 9.0146 60.9287 8.87845 60.9882 8.69814L63.4461 1.25326C63.5088 1.06346 63.5256 0.900671 63.4967 0.7649C63.4772 0.632255 63.3834 0.501444 63.2152 0.372466L62.9676 0.164764L63.0146 0.0224143L66.6368 1.21396L66.5898 1.35631L66.3145 1.37621C66.1119 1.38322 65.9586 1.43271 65.8544 1.5247C65.7534 1.6072 65.6716 1.74335 65.6089 1.93315L64.4669 5.39224L67.8752 6.51342L69.0172 3.05433C69.0799 2.86453 69.0952 2.70649 69.0631 2.58021C69.0436 2.44756 68.9498 2.31675 68.7816 2.18777L68.5578 2.00369L68.6048 1.86134L72.2413 3.05757L72.1943 3.19992L71.8715 3.21998C71.6689 3.22699 71.5155 3.27649 71.4114 3.36848C71.3072 3.46046 71.2238 3.60136 71.1612 3.79116L68.7033 11.236C68.6437 11.4163 68.6285 11.5744 68.6574 11.7102C68.6864 11.8459 68.7802 11.9767 68.9389 12.1026L69.1865 12.3103L69.1395 12.4526L65.503 11.2564L65.55 11.1141L65.8349 11.1131C66.0501 11.0997 66.2035 11.0502 66.295 10.9646C66.3991 10.8726 66.4825 10.7317 66.5452 10.5419L67.7812 6.79812L64.3729 5.67694L63.1369 9.42073C63.021 9.77186 63.0979 10.0655 63.3678 10.3015L63.5821 10.4667L63.5351 10.609L59.9128 9.41749Z" fill="#9DB5AD"/>
<path d="M76.9049 8.56229C77.4616 8.89851 77.8669 9.301 78.121 9.76976C78.3802 10.23 78.4934 10.7188 78.4606 11.2362C78.4415 11.7502 78.2817 12.2551 77.9811 12.751C77.9241 12.845 77.8603 12.9407 77.7895 13.0381C77.724 13.127 77.655 13.2021 77.5827 13.2636L73.7544 10.9514C73.2033 11.8799 72.9618 12.645 73.03 13.2467C73.1119 13.845 73.4697 14.3356 74.1035 14.7184C74.5317 14.977 74.92 15.1181 75.2684 15.1417C75.6168 15.1653 75.987 15.1144 76.3788 14.989L76.4373 15.182C75.8868 15.4919 75.3086 15.6448 74.7026 15.6408C74.1052 15.642 73.4981 15.4564 72.8815 15.084C72.2734 14.7167 71.8116 14.2626 71.496 13.7217C71.1856 13.1722 71.0454 12.5736 71.0752 11.9259C71.1051 11.2783 71.3247 10.6168 71.7341 9.94143C72.159 9.24042 72.6734 8.73938 73.277 8.43831C73.8859 8.12868 74.5079 7.99047 75.143 8.02367C75.7866 8.06205 76.3739 8.24158 76.9049 8.56229ZM76.7109 8.79548C76.4625 8.64547 76.2018 8.5931 75.9286 8.63835C75.6693 8.68023 75.3716 8.86248 75.0356 9.18511C74.7134 9.50437 74.3382 10.0076 73.9098 10.6949L76.1066 12.0217C76.7571 11.1416 77.1296 10.4498 77.2242 9.94637C77.3188 9.44291 77.1477 9.05928 76.7109 8.79548Z" fill="#9DB5AD"/>
<path d="M76.3845 17.1714L76.4803 17.056L76.6574 17.1246C77.0115 17.2619 77.3099 17.1843 77.5526 16.892L82.6794 10.7187C82.8071 10.5649 82.8721 10.424 82.8744 10.296C82.883 10.1604 82.8262 10.0096 82.704 9.84359L82.5825 9.68463L82.6783 9.56924L85.2058 10.8235L85.2583 11.0422L83.8705 12.6193L80.5932 16.5656C80.3568 16.8502 80.1204 17.1349 79.8841 17.4195C79.6618 17.7028 79.4357 17.9829 79.2057 18.2599C79.0779 18.4137 79.0033 18.5661 78.9819 18.7172C78.9669 18.8605 79.0135 19.0158 79.1216 19.1831L79.2431 19.3421L79.1473 19.4575L76.3845 17.1714Z" fill="#9DB5AD"/>
<path d="M77.2903 22.2039L77.4038 22.1057L77.5672 22.2023C77.8854 22.4162 78.1883 22.3988 78.4757 22.1501L84.6475 16.8092C84.8139 16.6652 84.9125 16.527 84.9432 16.3946C84.9805 16.2698 84.9487 16.1188 84.8478 15.9416L84.7442 15.7536L84.8576 15.6554L87.1877 17.0112L87.1726 17.2226L86.9094 17.6289C87.2771 17.7471 87.6336 17.9212 87.9791 18.1512C88.3312 18.3888 88.6482 18.6699 88.9301 18.9945C89.494 19.6438 89.6903 20.3732 89.519 21.1827C89.3617 21.9932 88.8218 22.7977 87.899 23.5962C86.9914 24.3816 86.093 24.7887 85.204 24.8176C84.3214 24.8539 83.549 24.4909 82.8868 23.7283C82.3688 23.1319 82.0197 22.5545 81.8396 21.9963L79.8769 23.6948C79.5743 23.9566 79.5033 24.2561 79.6637 24.5934L79.7938 24.8576L79.6804 24.9558L77.2903 22.2039ZM82.7437 22.9C83.0715 23.2775 83.5272 23.4055 84.1106 23.2841C84.7007 23.1703 85.4533 22.7174 86.3685 21.9254C87.2836 21.1334 87.831 20.4747 88.0104 19.9491C88.1974 19.417 88.1172 18.9509 87.7696 18.5507C87.527 18.2714 87.1674 18.0404 86.6908 17.8577L82.1187 21.8143C82.2468 22.2059 82.4552 22.5678 82.7437 22.9Z" fill="#9DB5AD"/>
<path d="M93.617 24.2422C93.4397 23.9522 93.3783 23.6502 93.4326 23.3362C93.5007 23.0255 93.6758 22.7843 93.9577 22.6126C94.2483 22.4357 94.5432 22.3907 94.8426 22.4776C95.1472 22.573 95.3881 22.7658 95.5653 23.0558C95.7426 23.3458 95.8014 23.6435 95.7419 23.949C95.6823 24.2545 95.5073 24.4957 95.2167 24.6726C94.9347 24.8443 94.6398 24.8893 94.3319 24.8076C94.0325 24.7207 93.7942 24.5323 93.617 24.2422ZM85.6699 27.0099L85.7981 26.9319L85.9588 27.0798C86.1144 27.2192 86.2617 27.2875 86.4007 27.2848C86.5449 27.2906 86.7025 27.2414 86.8734 27.1373L90.8855 24.6942C91.065 24.5849 91.1766 24.4701 91.2203 24.3498C91.2778 24.2329 91.2715 24.0787 91.2014 23.8873L91.1304 23.6847L91.2586 23.6067L93.4459 25.4876L93.3959 25.6936L91.5523 26.7636L87.9632 28.9492C87.7923 29.0533 87.6738 29.1664 87.6078 29.2886C87.5469 29.4193 87.5404 29.5813 87.5882 29.7746L87.6279 29.9259L87.4997 30.004L85.6699 27.0099Z" fill="#9DB5AD"/>
<path d="M88.1677 30.9053L88.3072 30.8497L88.4409 31.0223C88.6638 31.31 88.9566 31.3816 89.3191 31.237L93.6835 29.4967C93.888 29.4152 94.0237 29.3234 94.0907 29.2214C94.167 29.1156 94.1866 28.9626 94.1495 28.7622L94.1217 28.5311L94.2611 28.4755L96.0224 30.5331L95.9386 30.7279L95.1466 31.1729C95.5647 31.3827 95.9484 31.6547 96.2977 31.9889C96.647 32.323 96.9015 32.6896 97.0612 33.0886C97.3063 33.701 97.3265 34.2363 97.1218 34.6945C96.9209 35.162 96.4764 35.5329 95.7885 35.8072L91.7727 37.4085C91.4102 37.5531 91.253 37.8202 91.3012 38.2098L91.3095 38.3518L91.17 38.4074L89.8555 35.1226L89.9949 35.067L90.1231 35.2257C90.3553 35.5097 90.648 35.5813 91.0013 35.4404L95.4493 33.6668C96.0443 33.4295 96.2229 33.014 95.9853 32.4201C95.8219 32.0118 95.4391 31.648 94.837 31.3286L90.0961 33.219C89.7336 33.3636 89.5708 33.6168 89.6078 33.9786L89.6161 34.1206L89.4767 34.1762L88.1677 30.9053Z" fill="#9DB5AD"/>
<path d="M94.5367 42.3362C94.4246 41.6559 94.4431 41.0604 94.5923 40.5499L94.0886 40.6326C93.7824 40.6829 93.6248 40.8657 93.6159 41.181L93.5554 44.0466C93.5429 44.5246 93.4934 44.9631 93.407 45.362C93.3304 45.7594 93.1774 46.0934 92.9481 46.3639C92.7287 46.6328 92.3918 46.8046 91.9374 46.8792C91.4534 46.9586 90.9829 46.8738 90.526 46.6248C90.0591 46.3774 89.6511 45.9634 89.3018 45.3828C88.9443 44.8136 88.69 44.0706 88.5389 43.1537C88.409 42.3649 88.3898 41.725 88.4814 41.2341C88.5631 40.7447 88.7161 40.3804 88.9404 40.141C89.1664 39.9115 89.4226 39.7733 89.709 39.7263C90.0646 39.6679 90.4446 39.727 90.8491 39.9037C91.2453 40.0918 91.5812 40.3455 91.857 40.6647C91.9252 40.3396 92.0417 40.0927 92.2067 39.9238C92.3716 39.755 92.5627 39.6527 92.78 39.6171C92.9776 39.5846 93.1684 39.6039 93.3526 39.675C93.5483 39.7542 93.7472 39.8532 93.9493 39.9719L94.652 40.3578C94.9483 39.57 95.5409 39.1031 96.4299 38.9572C97.141 38.8404 97.7603 38.997 98.2876 39.4269C98.8166 39.8666 99.1623 40.5794 99.3247 41.5654C99.4075 42.0682 99.4205 42.5167 99.3637 42.9109C99.3086 43.3148 99.1926 43.6579 99.0159 43.9401C99.1173 44.2475 99.245 44.5303 99.3992 44.7885C99.5648 45.055 99.7651 45.2854 100 45.4797L99.8859 45.7111L99.1303 45.8351L98.855 44.1639C98.5184 44.5837 98.0389 44.8447 97.4166 44.9469C96.7252 45.0604 96.1101 44.8981 95.5713 44.4599C95.044 44.0301 94.6991 43.3222 94.5367 42.3362ZM94.8305 42.2728C94.8955 42.6671 95.1056 42.9263 95.4608 43.0503C95.8176 43.1841 96.3763 43.1886 97.1368 43.0638C97.8974 42.9389 98.4154 42.7577 98.6907 42.5201C98.9775 42.2907 99.0901 41.9887 99.0284 41.6141C98.9683 41.2492 98.7598 40.9999 98.403 40.8661C98.0561 40.7307 97.5023 40.7254 96.7417 40.8502C95.9812 40.9751 95.4567 41.1472 95.1682 41.3667C94.8814 41.5961 94.7688 41.8981 94.8305 42.2728ZM90.3634 40.7428C89.7807 40.8385 89.3704 41.0881 89.1325 41.4917C88.8963 41.9052 88.8423 42.5013 88.9707 43.2802C89.1055 44.0986 89.3403 44.6929 89.6753 45.0633C90.0102 45.4336 90.4196 45.579 90.9036 45.4996C91.1802 45.4542 91.3854 45.3142 91.5192 45.0795C91.6546 44.8548 91.727 44.4936 91.7363 43.9958L91.799 41.2363C91.8058 41.1542 91.8125 41.072 91.8193 40.9899C91.599 40.8843 91.3581 40.8074 91.0965 40.7592C90.8251 40.7126 90.5807 40.7072 90.3634 40.7428Z" fill="#9DB5AD"/>
<path d="M88.9602 52.4143C89.0096 52.0177 89.1484 51.7127 89.3767 51.4994C89.6038 51.296 89.8713 51.2134 90.1792 51.2515C90.4574 51.286 90.6685 51.4129 90.8127 51.6322C90.9569 51.8514 91.0135 52.085 90.9827 52.3329C90.9518 52.5808 90.8763 52.7829 90.7559 52.9391C90.6257 53.0941 90.4532 53.2238 90.2385 53.328L90.1063 53.4174C89.7811 53.5986 89.759 53.8173 90.0397 54.0737C90.1776 54.1814 90.364 54.3052 90.5987 54.4451C90.8223 54.5936 91.1285 54.7675 91.5173 54.9668L98.7903 52.9388C98.9877 52.8928 99.146 52.8369 99.2651 52.7711C99.3942 52.7066 99.5096 52.59 99.6113 52.4214L99.7489 52.1666L99.8979 52.1851L99.4369 55.8886L99.3028 55.872L99.2206 55.5597C99.1782 55.3329 99.0782 55.2047 98.9205 55.1751C98.7715 55.1566 98.5778 55.1729 98.3394 55.2239L94.1237 56.2718L98.0083 58.2488C98.2269 58.3564 98.4119 58.4096 98.5634 58.4082C98.7248 58.4081 98.8495 58.2977 98.9375 58.0771L99.0509 57.7739L99.1999 57.7924L98.9426 59.8599L98.7936 59.8414L98.73 59.5012C98.6888 59.2645 98.6092 59.0936 98.4912 58.9883C98.3732 58.883 98.2049 58.7766 97.9863 58.6689L91.743 55.463C90.7481 54.9469 90.0164 54.4635 89.548 54.0127C89.0796 53.5619 88.8837 53.0291 88.9602 52.4143Z" fill="#9DB5AD"/>
<path d="M90.1659 63.1052C90.4117 62.3865 90.772 61.8124 91.2468 61.383C91.731 60.9567 92.298 60.6906 92.9477 60.5847C93.5942 60.4883 94.2869 60.566 95.0258 60.8178C95.7647 61.0696 96.3524 61.4388 96.7889 61.9254C97.2221 62.4214 97.495 62.9843 97.6076 63.6139C97.7169 64.253 97.6568 64.9082 97.4272 65.5796C97.1976 66.251 96.8453 66.8014 96.3706 67.2309C95.9053 67.6636 95.3509 67.9392 94.7074 68.0578C94.0607 68.1859 93.3632 68.1224 92.6148 67.8673C91.8664 67.6123 91.2676 67.2446 90.8184 66.7642C90.3755 66.2965 90.093 65.7463 89.9709 65.1134C89.8551 64.4933 89.9201 63.8238 90.1659 63.1052ZM90.4501 63.202C90.3369 63.533 90.3411 63.83 90.4626 64.0932C90.5842 64.3563 90.872 64.6128 91.326 64.8625C91.7768 65.1217 92.4427 65.4014 93.3237 65.7016C94.2142 66.0051 94.9172 66.1919 95.4327 66.2619C95.9449 66.3415 96.3297 66.3142 96.5871 66.1802C96.8445 66.0462 97.0298 65.8137 97.143 65.4827C97.2562 65.1518 97.2536 64.85 97.1353 64.5774C97.0137 64.3143 96.7276 64.0531 96.2768 63.7939C95.8227 63.5441 95.1505 63.2675 94.26 62.9641C93.379 62.6639 92.6824 62.474 92.1701 62.3945C91.6546 62.3244 91.2682 62.3563 91.0108 62.4904C90.7502 62.6338 90.5633 62.8711 90.4501 63.202Z" fill="#9DB5AD"/>
<path d="M87.0946 69.9683C87.2971 69.6352 87.5483 69.3665 87.848 69.1624C88.1425 68.9668 88.4803 68.8734 88.8614 68.8821C89.2459 68.9046 89.6708 69.0626 90.1363 69.3563L93.412 71.3929C93.6088 71.5121 93.7708 71.5635 93.8979 71.547C94.025 71.5305 94.1498 71.46 94.2724 71.3355L94.4172 71.2129L94.5455 71.2906L93.6005 73.8564L93.3943 73.9067L91.6104 72.7386L88.5168 70.8648C88.2429 70.6989 87.9951 70.654 87.7732 70.73C87.5462 70.8145 87.36 70.9764 87.2146 71.2156C87.0692 71.4548 86.9736 71.6891 86.9278 71.9185C86.882 72.1479 86.8705 72.398 86.8932 72.6689L91.0468 75.2549C91.2436 75.3741 91.3987 75.4271 91.5121 75.414C91.634 75.406 91.7614 75.3312 91.8943 75.1897L92.0107 75.0849L92.1391 75.1626L91.2638 77.7004L91.0575 77.7508L89.2581 76.6083L85.7793 74.5012C85.591 74.3872 85.43 74.3247 85.2961 74.3138C85.1623 74.3028 85.0092 74.362 84.8369 74.4914L84.7205 74.5962L84.5921 74.5184L85.8269 72.1983L86.6543 72.5417C86.5946 72.1199 86.5847 71.6931 86.6247 71.2615C86.6679 70.8436 86.8246 70.4125 87.0946 69.9683Z" fill="#9DB5AD"/>
<path d="M79.5094 79.5921C79.8694 79.2596 80.2335 79.005 80.6016 78.8283C80.9629 78.6443 81.3226 78.5027 81.6806 78.4034L82.8832 79.7227L82.773 79.8245L81.7864 79.5106C81.3528 79.3665 80.9725 79.3094 80.6455 79.3391C80.318 79.383 80.0036 79.5441 79.7024 79.8223C79.3497 80.1481 79.1382 80.4864 79.0679 80.8372C78.9971 81.2021 79.084 81.5166 79.3288 81.7806C79.5531 82.0226 79.8139 82.1494 80.1109 82.1609C80.408 82.1724 80.8237 82.0471 81.358 81.7849L81.9535 81.5004C82.524 81.2184 83.0671 81.098 83.5826 81.1392C84.0981 81.1803 84.5428 81.4026 84.9167 81.806C85.3654 82.29 85.5551 82.8771 85.4858 83.5674C85.4165 84.2576 85.0255 84.9319 84.3128 85.5902C84.0263 85.8549 83.7275 86.0695 83.4165 86.2343C83.105 86.4131 82.7739 86.5488 82.4232 86.6413L81.3879 85.3921L81.4981 85.2903L82.5161 85.6161C82.8801 85.7292 83.1761 85.7689 83.404 85.7353C83.6315 85.7158 83.8811 85.5805 84.1529 85.3294C84.4027 85.0987 84.5733 84.8119 84.6645 84.4689C84.7557 84.126 84.6824 83.8262 84.4444 83.5695C84.2133 83.3202 83.9379 83.207 83.6182 83.23C83.2912 83.2597 82.8863 83.3819 82.4033 83.5966L81.7748 83.9116C81.0963 84.2389 80.5105 84.3647 80.0176 84.2891C79.5315 84.2208 79.1049 83.9886 78.7378 83.5926C78.2415 83.0572 78.0568 82.4314 78.1838 81.7151C78.3034 81.0056 78.7453 80.2979 79.5094 79.5921Z" fill="#9DB5AD"/>
<path d="M77.1694 91.0201C76.6194 91.3671 76.0777 91.5495 75.544 91.5671C75.0157 91.5931 74.527 91.476 74.0779 91.2157C73.6257 90.9691 73.2444 90.6009 72.9341 90.1111C72.8753 90.0182 72.818 89.9184 72.7623 89.8117C72.7119 89.7135 72.6753 89.6183 72.6525 89.5263L76.4345 87.1394C75.8483 86.2326 75.2703 85.6753 74.7005 85.4675C74.1275 85.2735 73.528 85.374 72.9019 85.7692C72.4789 86.0362 72.179 86.32 72.0023 86.6207C71.8256 86.9213 71.706 87.2747 71.6434 87.6807L71.4442 87.6467C71.4123 87.0167 71.5334 86.4319 71.8075 85.8925C72.0732 85.3583 72.5106 84.899 73.1198 84.5145C73.7205 84.1354 74.3338 83.9257 74.9596 83.8854C75.5908 83.8535 76.19 83.9955 76.7572 84.3113C77.3244 84.6272 77.8193 85.1187 78.2419 85.7859C78.6805 86.4784 78.9 87.1615 78.9004 87.8351C78.9061 88.5172 78.7522 89.1345 78.4389 89.6869C78.1171 90.2446 77.694 90.689 77.1694 91.0201ZM77.047 90.7427C77.2924 90.5878 77.4557 90.3783 77.5371 90.1141C77.6154 89.8638 77.5849 89.5165 77.4457 89.0724C77.3034 88.6421 77.0198 88.0822 76.595 87.3928L74.4248 88.7624C74.9233 89.7364 75.3771 90.378 75.7861 90.6873C76.1952 90.9965 76.6155 91.015 77.047 90.7427Z" fill="#9DB5AD"/>
<path d="M68.6158 95.2494C68.0089 95.4837 67.442 95.5579 66.915 95.472C66.3917 95.3954 65.935 95.1861 65.5448 94.8438C65.149 94.5145 64.8463 94.0796 64.6369 93.5391C64.5972 93.4366 64.5604 93.3276 64.5264 93.2122C64.496 93.106 64.4786 93.0056 64.4741 92.9109L68.6475 91.3002C68.2483 90.2973 67.7893 89.6388 67.2706 89.3248C66.7461 89.0237 66.1385 89.0065 65.4476 89.2731C64.9807 89.4533 64.6315 89.6738 64.3998 89.9346C64.1682 90.1955 63.9822 90.519 63.8421 90.9052L63.6533 90.8334C63.7442 90.2091 63.9764 89.6588 64.35 89.1826C64.7142 88.7099 65.2325 88.3438 65.9047 88.0843C66.5676 87.8285 67.2099 87.7413 67.8317 87.8227C68.4571 87.9134 69.0174 88.1685 69.5126 88.588C70.0079 89.0075 70.398 89.5854 70.6832 90.3216C70.9793 91.0858 71.0621 91.7984 70.9318 92.4594C70.805 93.1296 70.5344 93.7054 70.1199 94.1868C69.696 94.6718 69.1946 95.026 68.6158 95.2494ZM68.5495 94.9536C68.8202 94.8491 69.0211 94.6752 69.1522 94.4317C69.2776 94.2012 69.3151 93.8547 69.2646 93.3921C69.2085 92.9423 69.0389 92.3382 68.7558 91.5798L66.361 92.5041C66.6611 93.5559 66.9819 94.2731 67.3232 94.6556C67.6646 95.0381 68.0733 95.1374 68.5495 94.9536Z" fill="#9DB5AD"/>
<path d="M62.0063 89.7698L62.0301 89.9178L61.8196 90.0274C61.501 90.1897 61.3718 90.4583 61.432 90.8332L62.7037 98.7507C62.7354 98.948 62.7987 99.0897 62.8936 99.1757C62.9885 99.2617 63.1396 99.3185 63.3468 99.346L63.5466 99.3596L63.5704 99.5076L60.9595 100.578L60.7602 100.473L60.4719 98.3944L59.3119 91.1725C59.2485 90.7779 59.0458 90.5573 58.7038 90.5109L58.4867 90.4849L58.463 90.3369L62.0063 89.7698ZM56.506 90.6501L59.7392 93.9275L57.4029 96.8971C57.2934 97.036 57.2391 97.1712 57.24 97.3026C57.2325 97.4455 57.3324 97.5307 57.5395 97.5583L57.8035 97.5919L57.8272 97.7399L55.6182 98.0935L55.5944 97.9455L56.0202 97.7559C56.2265 97.6521 56.391 97.5397 56.5135 97.4189C56.6277 97.3096 56.7653 97.156 56.9261 96.9582L58.337 95.1386L55.0913 91.8783C54.8983 91.6866 54.7231 91.5426 54.5657 91.4464C54.4083 91.3501 54.2146 91.2799 53.9845 91.2358L53.9204 91.2157L53.8966 91.0677L56.506 90.6501Z" fill="#9DB5AD"/>
<path d="M46.7098 98.9153C47.0487 98.9469 47.3229 99.0779 47.5326 99.3082C47.7413 99.5485 47.8304 99.8327 47.7996 100.161C47.768 100.499 47.6277 100.762 47.3789 100.95C47.1301 101.137 46.8363 101.215 46.4975 101.184C46.1586 101.152 45.8843 101.021 45.6746 100.791C45.455 100.56 45.361 100.275 45.3927 99.9365C45.4234 99.6082 45.5686 99.3458 45.8283 99.1492C46.0771 98.9617 46.3709 98.8837 46.7098 98.9153ZM50.0232 87.3624C50.5913 87.4154 50.9906 87.553 51.2211 87.7752C51.4526 87.9874 51.5539 88.2478 51.5251 88.5562C51.499 88.8348 51.3784 89.0493 51.1632 89.1998C50.948 89.3504 50.7059 89.4131 50.4368 89.388C50.1677 89.3629 49.9296 89.2755 49.7224 89.1257C49.5162 88.9659 49.3668 88.7362 49.2742 88.4366L49.1554 88.0943C49.0959 87.9784 49.0194 87.9361 48.926 87.9676C48.8235 87.9881 48.7593 88.1377 48.7332 88.4162L47.9816 96.4448C47.9602 96.6736 47.9996 96.8429 48.1 96.9526C48.1894 97.0713 48.3319 97.1599 48.5275 97.2183L48.749 97.269L48.735 97.4183L45.8569 98.038L45.6915 97.872L45.9347 95.7571L46.3231 91.6085C46.3836 90.9619 46.4643 90.4224 46.565 89.9903C46.6558 89.5572 46.785 89.1979 46.9525 88.9125C47.1109 88.6161 47.3268 88.3503 47.6002 88.1148C47.9816 87.7992 48.3836 87.5858 48.8062 87.4747C49.2288 87.3636 49.6345 87.3261 50.0232 87.3624Z" fill="#9DB5AD"/>
<path d="M42.1796 89.6679C42.557 89.7679 42.886 89.9327 43.1667 90.1621C43.4378 90.389 43.6229 90.6862 43.7219 91.0536C43.8088 91.4281 43.7767 91.8797 43.6258 92.4083L42.5921 96.1197C42.533 96.3418 42.5293 96.5114 42.581 96.6285C42.6328 96.7456 42.7357 96.8452 42.8899 96.9274L43.0486 97.0315L43.0101 97.1764L40.2775 96.995L40.171 96.8117L40.7906 94.7739L41.7191 91.2827C41.8013 90.9737 41.7746 90.7236 41.639 90.5326C41.4937 90.3391 41.2856 90.2064 41.0147 90.1346C40.7438 90.0628 40.4916 90.0373 40.2582 90.0582C40.0248 90.079 39.7812 90.1385 39.5272 90.2366L38.2132 94.9438C38.1541 95.1659 38.1469 95.3294 38.1915 95.4342C38.2335 95.5488 38.3413 95.6497 38.5149 95.737L38.6484 95.819L38.6099 95.9638L35.9238 95.8413L35.8172 95.658L36.4079 93.6125L37.4519 89.6867C37.5084 89.4742 37.5231 89.3024 37.4959 89.1711C37.4686 89.0398 37.3685 88.9099 37.1956 88.7814L37.062 88.6995L37.1006 88.5546L39.6788 89.0827L39.5821 89.972C39.9707 89.7959 40.378 89.6661 40.8042 89.5826C41.2181 89.5062 41.6765 89.5346 42.1796 89.6679Z" fill="#9DB5AD"/>
<path d="M33.7665 86.6975C34.2066 86.9136 34.5754 87.1614 34.8727 87.441C35.1744 87.7116 35.4359 87.9959 35.6572 88.2938L34.8551 89.8877L34.7204 89.8215L34.6599 88.7897C34.639 88.334 34.556 87.9592 34.4108 87.6652C34.2522 87.3758 33.9888 87.1406 33.6205 86.9598C33.1893 86.7481 32.7971 86.6725 32.4439 86.7329C32.0772 86.7979 31.8143 86.9917 31.6553 87.3145C31.5095 87.6104 31.4845 87.8988 31.5804 88.1797C31.6762 88.4606 31.9426 88.8029 32.3795 89.2067L32.8592 89.6594C33.3276 90.0898 33.6351 90.5525 33.7816 91.0476C33.9281 91.5427 33.8798 92.0368 33.6368 92.5299C33.3452 93.1217 32.8643 93.5091 32.194 93.6922C31.5237 93.8753 30.7529 93.753 29.8816 93.3252C29.5313 93.1533 29.2233 92.9519 28.9576 92.7213C28.6786 92.4952 28.4329 92.2354 28.2206 91.9419L29.0172 90.529L29.1519 90.5952L29.2126 91.6606C29.2375 92.0402 29.3065 92.3302 29.4197 92.5306C29.5196 92.7355 29.7357 92.9195 30.068 93.0827C30.3734 93.2327 30.7028 93.2886 31.0562 93.2506C31.4096 93.2125 31.6637 93.0366 31.8183 92.7227C31.9685 92.4179 31.9755 92.1207 31.8393 91.8311C31.6941 91.5371 31.4345 91.2037 31.0605 90.8307L30.5404 90.3582C29.9908 89.8434 29.663 89.3429 29.5568 88.8565C29.4463 88.379 29.5103 87.8982 29.7488 87.4141C30.0714 86.7595 30.5903 86.3629 31.3057 86.2242C32.0121 86.0811 32.8323 86.2388 33.7665 86.6975Z" fill="#9DB5AD"/>
<path d="M27.6169 83.0557C28.1411 83.4232 28.4587 83.8412 28.5695 84.3096C28.6721 84.7723 28.5221 85.2898 28.1194 85.8622L25.1682 90.057L26.016 90.6514L25.9297 90.774L25.6003 90.6163C25.3061 90.4956 25.0315 90.4252 24.7765 90.4051C24.5133 90.3794 24.2283 90.3932 23.9215 90.4468L22.1286 90.8567L22.0058 90.7705L23.2507 89.0792L21.8745 88.1144L22.0471 87.8691L23.4356 88.8425L26.5421 84.4269C26.7435 84.1407 26.8345 83.8809 26.8152 83.6476C26.7877 83.4085 26.6756 83.2201 26.479 83.0823C26.307 82.9617 26.1266 82.8963 25.938 82.8862C25.7437 82.8843 25.5292 82.911 25.2946 82.9663L25.258 82.7575C25.6174 82.5943 25.998 82.5314 26.3998 82.5689C26.8016 82.6063 27.2073 82.7686 27.6169 83.0557Z" fill="#9DB5AD"/>
<path d="M18.3136 86.3791C18.5657 86.6073 18.7101 86.8796 18.7469 87.1962C18.7695 87.5134 18.6698 87.7941 18.4479 88.0384C18.2193 88.2901 17.9491 88.4164 17.6374 88.4175C17.3182 88.4118 17.0325 88.2949 16.7804 88.0667C16.5283 87.8385 16.3876 87.5694 16.3582 87.2596C16.3289 86.9498 16.4285 86.6691 16.6572 86.4174C16.8791 86.1731 17.1493 86.0468 17.4677 86.0383C17.7795 86.0373 18.0614 86.1508 18.3136 86.3791ZM25.1534 81.4828L25.0525 81.5938L24.8565 81.4972C24.6678 81.4074 24.5072 81.3834 24.3746 81.4253C24.2346 81.4604 24.0973 81.552 23.9629 81.7L20.8058 85.1752C20.6646 85.3306 20.59 85.4722 20.5821 85.5999C20.5601 85.7283 20.6097 85.8744 20.7311 86.0383L20.8566 86.2126L20.7557 86.3236L18.1252 85.1362L18.1148 84.9245L19.5804 83.3781L22.4046 80.2693C22.5391 80.1212 22.6207 79.9793 22.6495 79.8435C22.6709 79.701 22.6313 79.5438 22.5308 79.3718L22.4498 79.2378L22.5507 79.1268L25.1534 81.4828Z" fill="#9DB5AD"/>
<path d="M19.5578 75.4323C19.9889 75.9582 20.2695 76.5294 20.3998 77.146C20.516 77.7611 20.4618 78.3735 20.2371 78.983C19.9984 79.5911 19.5613 80.1546 18.9261 80.6735C18.2985 81.186 17.653 81.4872 16.9896 81.5772C16.312 81.6658 15.67 81.5768 15.0636 81.3104C14.4431 81.0425 13.9079 80.634 13.4578 80.085C13.0902 79.6364 12.8532 79.1974 12.7468 78.7678C12.6405 78.3383 12.6408 77.9442 12.7479 77.5857C12.8472 77.2335 13.0247 76.9529 13.2804 76.7441C13.4973 76.567 13.7216 76.4935 13.9533 76.5238C14.1773 76.5603 14.3748 76.683 14.546 76.8918C14.7298 77.1161 14.7974 77.3642 14.7488 77.6363C14.7002 77.9084 14.5537 78.1636 14.3093 78.4019C14.1452 78.5488 13.9987 78.662 13.8698 78.7415C13.7332 78.8272 13.6092 78.9285 13.498 79.0452C13.3916 79.1837 13.3476 79.3036 13.3659 79.4048C13.3701 79.5046 13.4198 79.6125 13.5149 79.7285C13.9015 80.2003 14.4079 80.3999 15.0341 80.3275C15.6538 80.2474 16.4131 79.8403 17.3118 79.1064C18.0943 78.4673 18.5774 77.8339 18.7613 77.2061C18.931 76.5769 18.7687 75.9606 18.2742 75.3574C17.9763 74.994 17.6696 74.7539 17.3541 74.6372C17.0385 74.5205 16.6635 74.4653 16.2289 74.4716L16.2268 74.2797C16.8424 74.0997 17.4389 74.1096 18.0165 74.3092C18.594 74.5089 19.1078 74.8833 19.5578 75.4323Z" fill="#9DB5AD"/>
<path d="M8.51053 72.5449C8.20288 71.9726 8.05926 71.4202 8.07968 70.8876C8.09128 70.3598 8.24315 69.8816 8.53529 69.4529C8.81388 69.0202 9.20896 68.6668 9.72054 68.3928C9.81756 68.3408 9.92136 68.2909 10.0319 68.243C10.1337 68.1998 10.2314 68.1702 10.325 68.1541L12.4407 72.0897C13.3886 71.5706 13.9866 71.0348 14.2349 70.4822C14.4696 69.9256 14.4118 69.3215 14.0615 68.67C13.8249 68.2298 13.5626 67.911 13.2747 67.7137C12.9869 67.5163 12.6423 67.372 12.2411 67.2808L12.2892 67.0849C12.921 67.098 13.4968 67.2602 14.0163 67.5716C14.5311 67.8741 14.9589 68.3424 15.2997 68.9763C15.6358 69.6014 15.8017 70.227 15.7974 70.853C15.7843 71.4837 15.5997 72.0701 15.2437 72.6124C14.8877 73.1546 14.3612 73.6124 13.6644 73.9856C12.9412 74.373 12.243 74.5429 11.5698 74.4953C10.8878 74.4523 10.282 74.2552 9.75233 73.9039C9.21792 73.5438 8.80399 73.0908 8.51053 72.5449ZM8.79644 72.4428C8.93371 72.6981 9.13142 72.8757 9.38958 72.9756C9.63419 73.0713 9.98336 73.0658 10.4371 72.9588C10.8772 72.8478 11.4569 72.6053 12.1761 72.2314L10.962 69.9731C9.95327 70.4 9.2798 70.8061 8.94162 71.1914C8.60344 71.5766 8.55505 71.9938 8.79644 72.4428Z" fill="#9DB5AD"/>
<path d="M11.6444 59.2744C11.7527 59.7519 11.7915 60.1939 11.7606 60.6005C11.7394 61.0048 11.6824 61.3865 11.5894 61.7456L9.84343 62.1251L9.81026 61.9789L10.5761 61.2832C10.918 60.9805 11.1578 60.6804 11.2955 60.3829C11.4213 60.0778 11.4389 59.7255 11.3482 59.326C11.242 58.8582 11.0544 58.5062 10.7852 58.27C10.5041 58.0262 10.1878 57.944 9.83634 58.0235C9.51417 58.0963 9.2738 58.2583 9.11523 58.5093C8.95665 58.7603 8.85741 59.1823 8.81751 59.7753L8.76646 60.4323C8.72564 61.0665 8.55844 61.596 8.26486 62.021C7.97128 62.446 7.55602 62.7192 7.01907 62.8406C6.37473 62.9863 5.77051 62.8565 5.20643 62.4513C4.64234 62.0461 4.25304 61.3709 4.03851 60.4256C3.95226 60.0456 3.91547 59.6799 3.92814 59.3287C3.92884 58.97 3.97679 58.6159 4.07198 58.2666L5.67345 57.9966L5.70662 58.1428L4.9148 58.8597C4.63465 59.1177 4.45212 59.3537 4.36723 59.5675C4.27036 59.7738 4.26284 60.0573 4.34466 60.4179C4.41986 60.7492 4.58337 61.0401 4.83521 61.2905C5.08705 61.5409 5.38382 61.6275 5.72551 61.5502C6.05745 61.4751 6.2934 61.2937 6.43336 61.0059C6.57111 60.7084 6.66768 60.2973 6.72307 59.7725L6.76416 59.0716C6.81971 58.3214 7.00358 57.7522 7.31577 57.364C7.61819 56.978 8.033 56.7254 8.56018 56.6062C9.27286 56.4451 9.90812 56.5985 10.4659 57.0666C11.0216 57.525 11.4144 58.2609 11.6444 59.2744Z" fill="#9DB5AD"/>
<path d="M2.27982 54.073C2.30852 54.4116 2.22826 54.7091 2.03906 54.9658C1.83903 55.2133 1.57444 55.351 1.24529 55.3788C0.906156 55.4074 0.622152 55.3161 0.393276 55.1048C0.163555 54.8835 0.0343456 54.6036 0.00564748 54.2651C-0.0230507 53.9266 0.0576252 53.634 0.247675 53.3873C0.437725 53.1406 0.702315 53.003 1.04145 52.9743C1.3706 52.9465 1.65461 53.0378 1.89346 53.2483C2.12233 53.4596 2.25112 53.7345 2.27982 54.073ZM10.6282 55.1428L10.4786 55.1554L10.401 54.9514C10.3243 54.7573 10.2231 54.6305 10.0975 54.5709C9.97107 54.5013 9.80811 54.475 9.60862 54.4918L4.92562 54.8874C4.71616 54.9051 4.56493 54.958 4.47194 55.0461C4.36813 55.125 4.30472 55.2658 4.2817 55.4683L4.25454 55.6811L4.10492 55.6938L2.99049 53.0353L3.12745 52.8733L5.2558 52.7387L9.44506 52.3848C9.64455 52.3679 9.80119 52.3196 9.91497 52.2398C10.0279 52.15 10.1063 52.0081 10.1501 51.8138L10.1823 51.6607L10.3319 51.648L10.6282 55.1428Z" fill="#9DB5AD"/>
<path d="M10.1391 50.4722L9.98948 50.4599L9.94692 50.2458C9.87599 49.8891 9.64598 49.6947 9.25692 49.6626L4.57312 49.2766C4.35364 49.2585 4.19114 49.2802 4.08562 49.3417C3.97011 49.4023 3.88417 49.5306 3.82779 49.7265L3.7494 49.9456L3.59976 49.9333L2.94311 47.3075L3.10511 47.1704L4.01285 47.1249C3.73242 46.7509 3.51056 46.3366 3.34728 45.882C3.184 45.4274 3.12007 44.986 3.15549 44.5578C3.20985 43.9005 3.43102 43.4125 3.81899 43.0935C4.20778 42.7646 4.7713 42.6306 5.50953 42.6915L9.81922 43.0466C10.2083 43.0787 10.4684 42.9096 10.5994 42.5395L10.6554 42.4087L10.8051 42.4211L10.5135 45.9462L10.3638 45.9339L10.32 45.7348C10.2391 45.3772 10.0091 45.1828 9.63005 45.1516L4.85646 44.7581C4.21799 44.7055 3.8724 44.9979 3.81968 45.6352C3.78344 46.0733 3.96338 46.5694 4.3595 47.1234L9.44733 47.5427C9.8364 47.5748 10.0952 47.4207 10.2238 47.0804L10.2798 46.9496L10.4295 46.962L10.1391 50.4722Z" fill="#9DB5AD"/>
<path d="M12.3647 37.8262C12.1699 38.4772 11.8532 39.0293 11.4146 39.4826C10.9693 39.9233 10.4308 40.2217 9.79918 40.3775C9.1608 40.5208 8.44836 40.4753 7.66186 40.2408C6.88495 40.0092 6.27328 39.6443 5.82683 39.1463C5.37366 38.6357 5.0877 38.0552 4.96898 37.4045C4.84352 36.7414 4.88249 36.07 5.08588 35.3902C5.25203 34.8349 5.48352 34.393 5.78035 34.0643C6.07717 33.7357 6.40433 33.5152 6.76182 33.4027C7.10972 33.2875 7.44193 33.277 7.75845 33.3714C8.02701 33.4515 8.21367 33.5957 8.31843 33.8043C8.4136 34.0099 8.42252 34.242 8.34517 34.5005C8.2621 34.7781 8.09407 34.9731 7.84108 35.0854C7.5881 35.1977 7.29425 35.2196 6.95955 35.1511C6.74568 35.0977 6.56967 35.04 6.43152 34.978C6.28379 34.9131 6.13033 34.8673 5.97114 34.8407C5.79662 34.8304 5.6725 34.8612 5.59876 34.9331C5.51829 34.9925 5.45657 35.094 5.4136 35.2376C5.23886 35.8217 5.35696 36.3522 5.76791 36.8293C6.18172 37.2968 6.94493 37.6964 8.05753 38.0281C9.02627 38.3169 9.8226 38.3614 10.4465 38.1616C11.0637 37.9493 11.4841 37.4698 11.7075 36.723C11.8421 36.273 11.8695 35.8849 11.7895 35.5586C11.7095 35.2324 11.5451 34.8914 11.2964 34.5356L11.4544 34.4263C11.9487 34.8344 12.2748 35.3331 12.4328 35.9225C12.5908 36.5118 12.5681 37.1464 12.3647 37.8262Z" fill="#9DB5AD"/>
<path d="M8.58214 27.0677C8.88542 26.4931 9.26392 26.0653 9.71767 25.7844C10.1626 25.4988 10.6447 25.3571 11.164 25.3592C11.6792 25.3478 12.1936 25.4771 12.7073 25.7472C12.8047 25.7985 12.9042 25.8564 13.0058 25.9212C13.0986 25.9812 13.1778 26.0455 13.2435 26.1139L11.1579 30.0655C12.1191 30.5597 12.8985 30.755 13.4962 30.6514C14.0898 30.5344 14.5592 30.1488 14.9044 29.4946C15.1377 29.0526 15.2558 28.6573 15.2588 28.3088C15.2617 27.9602 15.1889 27.5944 15.0403 27.2113L15.2299 27.1416C15.5723 27.6718 15.7595 28.2389 15.7915 28.843C15.828 29.4382 15.6784 30.0541 15.3424 30.6906C15.0112 31.3182 14.5844 31.8053 14.0621 32.1518C13.5309 32.4936 12.9406 32.6688 12.2912 32.6774C11.6417 32.686 10.9672 32.5063 10.2675 32.1384C9.54134 31.7565 9.00982 31.2737 8.67298 30.69C8.32728 30.1016 8.15224 29.49 8.14783 28.8552C8.14809 28.2116 8.29286 27.6158 8.58214 27.0677ZM8.82683 27.2472C8.69152 27.5036 8.65459 27.7665 8.71602 28.0359C8.77326 28.2919 8.97315 28.5778 9.31569 28.8934C9.65404 29.1956 10.1796 29.5397 10.8922 29.9258L12.089 27.6583C11.1703 27.0622 10.4565 26.732 9.94738 26.6676C9.4383 26.6031 9.06479 26.7963 8.82683 27.2472Z" fill="#9DB5AD"/>
<path d="M14.8805 18.5165L13.4245 16.9581C13.5118 16.6247 13.6658 16.2586 13.8865 15.8597C14.1143 15.4537 14.4235 15.05 14.8141 14.6487C15.3722 14.0754 15.9047 13.6933 16.4116 13.5023C16.9114 13.3043 17.3815 13.2587 17.8219 13.3655C18.2623 13.4722 18.6584 13.6962 19.0102 14.0374C19.5056 14.5178 19.7565 15.2279 19.763 16.1676C19.7622 17.1003 19.6408 18.2574 19.3988 19.6388C19.3602 19.9078 19.3188 20.2299 19.2747 20.6051C19.2305 20.9802 19.1968 21.3375 19.1733 21.6771L23.0972 17.646L24.3248 18.8367L19.7208 23.5665L18.8163 22.6891C18.8161 22.1874 18.8126 21.6964 18.8057 21.216C18.7985 20.7214 18.7918 20.2552 18.7855 19.8172C18.7565 18.7859 18.6595 17.9464 18.4944 17.2987C18.3291 16.6369 18.0096 16.0762 17.5358 15.6166C17.0404 15.1361 16.5548 14.8393 16.0788 14.726C15.5957 14.6057 15.1798 14.7247 14.831 15.083C14.6148 15.3052 14.4699 15.5687 14.3964 15.8736C14.3227 16.1644 14.3526 16.5137 14.4858 16.9217L14.9851 18.409L14.8805 18.5165Z" fill="#9DB5AD"/>
<path d="M28.4059 16.1422C27.9101 16.4805 27.3471 16.6588 26.7171 16.6771C26.0953 16.6898 25.446 16.4852 24.7692 16.0634C24.0925 15.6416 23.4237 14.9481 22.7629 13.9829C22.0964 13.0094 21.6893 12.1314 21.5414 11.3487C21.3879 10.5579 21.4301 9.87559 21.6678 9.30194C21.9138 8.72265 22.2847 8.26388 22.7806 7.92561C23.2765 7.58735 23.8353 7.41188 24.4571 7.3992C25.0871 7.38089 25.7434 7.58676 26.4258 8.01682C27.1108 8.433 27.7865 9.12782 28.453 10.1013C29.1138 11.0665 29.514 11.9432 29.6536 12.7315C29.8014 13.5141 29.7523 14.1951 29.5063 14.7744C29.2686 15.348 28.9018 15.804 28.4059 16.1422ZM28.2365 15.8947C28.4431 15.7538 28.58 15.5818 28.647 15.3787C28.7224 15.17 28.7095 14.8944 28.6084 14.5519C28.5072 14.2093 28.3079 13.7765 28.0103 13.2533C27.7071 12.7219 27.2844 12.0602 26.7422 11.2683C26.2 10.4763 25.736 9.84282 25.3502 9.36778C24.9587 8.8845 24.6215 8.53362 24.3385 8.31514C24.0556 8.09667 23.803 7.98455 23.5808 7.97879C23.3669 7.96739 23.1566 8.03216 22.95 8.1731C22.7434 8.31404 22.6024 8.48888 22.5271 8.6976C22.46 8.90069 22.477 9.17348 22.5782 9.51598C22.6736 9.85024 22.8758 10.2872 23.1847 10.8269C23.4879 11.3583 23.9134 12.0241 24.4612 12.8243C25.0034 13.6163 25.4675 14.2498 25.8533 14.7248C26.2392 15.1998 26.5735 15.5466 26.8565 15.7651C27.1338 15.9753 27.3794 16.0861 27.5933 16.0975C27.8155 16.1033 28.0299 16.0357 28.2365 15.8947Z" fill="#9DB5AD"/>
<path d="M35.4071 12.3089C34.8547 12.5443 34.2678 12.6098 33.6462 12.5054C33.0338 12.397 32.4369 12.0702 31.8553 11.5249C31.2737 10.9797 30.753 10.1695 30.293 9.09435C29.8292 8.01002 29.601 7.06967 29.6087 6.27328C29.6123 5.46771 29.7867 4.80668 30.1317 4.2902C30.486 3.76979 30.9393 3.39186 31.4917 3.15642C32.044 2.92098 32.6264 2.85745 33.2387 2.96583C33.8603 3.07029 34.4638 3.39974 35.0493 3.95417C35.6401 4.49549 36.1674 5.30832 36.6313 6.39265C37.0912 7.46779 37.3128 8.40552 37.296 9.20583C37.2883 10.0022 37.1074 10.6606 36.7532 11.181C36.4081 11.6975 35.9594 12.0735 35.4071 12.3089ZM35.2891 12.0332C35.5193 11.9351 35.6871 11.793 35.7924 11.6068C35.907 11.4167 35.9482 11.1439 35.9158 10.7883C35.8834 10.4327 35.7722 9.9694 35.5824 9.39843C35.3886 8.81826 35.1031 8.0871 34.7257 7.20493C34.3483 6.32276 34.0167 5.61122 33.7308 5.07029C33.4411 4.52018 33.1787 4.11049 32.9438 3.84122C32.7089 3.57195 32.483 3.4129 32.2662 3.36407C32.0586 3.31132 31.8397 3.334 31.6096 3.4321C31.3794 3.5302 31.2071 3.67429 31.0925 3.86439C30.9871 4.05056 30.9506 4.32144 30.983 4.67704C31.0114 5.02345 31.1245 5.49133 31.3222 6.08068C31.516 6.66085 31.8035 7.39661 32.1848 8.28796C32.5622 9.17013 32.8938 9.88168 33.1797 10.4226C33.4655 10.9635 33.7259 11.3686 33.9608 11.6379C34.1918 11.898 34.4111 12.0544 34.6187 12.1071C34.8355 12.156 35.059 12.1313 35.2891 12.0332Z" fill="#9DB5AD"/>
<path d="M43.0839 9.90096C42.4267 10.0345 41.8722 10.0707 41.4205 10.0095C40.9786 9.94633 40.5366 9.85769 40.0945 9.74357L39.867 7.80139L40.0141 7.7715L40.9041 8.8296C41.4934 9.51542 42.1706 9.78061 42.9357 9.62516C43.3869 9.53348 43.7119 9.27371 43.9107 8.84584C44.1173 8.40619 44.1298 7.74086 43.9481 6.84986C43.7904 6.07635 43.5598 5.54706 43.2565 5.26199C42.9512 4.96712 42.5141 4.87749 41.9452 4.99308L41.0624 5.17244L41.0025 4.8787L41.7823 4.72026C42.3022 4.61464 42.643 4.38225 42.8047 4.02309C42.9762 3.66194 42.9831 3.09461 42.8254 2.3211C42.6717 1.56718 42.4501 1.05647 42.1606 0.788989C41.8691 0.511715 41.537 0.410944 41.1642 0.486676C40.7915 0.562407 40.4996 0.733885 40.2885 1.00111C40.0872 1.26634 39.938 1.56177 39.8409 1.88739L39.4304 3.25561L39.2803 3.27082L38.9872 1.08195C39.2731 0.881103 39.5984 0.697754 39.9629 0.531909C40.3353 0.354279 40.7618 0.216637 41.2425 0.118984C42.2724 -0.0902744 43.0982 -0.0235139 43.7197 0.319265C44.349 0.65026 44.7316 1.14866 44.8673 1.81447C44.9652 2.29424 44.853 2.79628 44.5309 3.32059C44.2067 3.8351 43.6203 4.26527 42.7714 4.61109C43.7899 4.49593 44.5706 4.61771 45.1137 4.97643C45.6567 5.33516 45.9932 5.83273 46.1229 6.46916C46.2267 6.97831 46.1735 7.46839 45.963 7.93941C45.7624 8.40844 45.4163 8.81525 44.9248 9.15985C44.443 9.50246 43.8294 9.7495 43.0839 9.90096Z" fill="#9DB5AD"/>
</svg>
