<svg width="109" height="44" viewBox="0 0 109 44" fill="none" xmlns="http://www.w3.org/2000/svg">
<path d="M11.9845 24.6231H0V23.7353C0.237643 23.8046 0.415874 23.8046 0.534696 23.7353C0.683223 23.7122 0.831749 23.6264 0.980276 23.4778C1.1288 23.3293 1.20142 23.095 1.20142 22.7781V2.04047C1.20142 1.6972 1.1255 1.45296 0.980276 1.30443C0.831749 1.15591 0.683223 1.06019 0.534696 1.01398C0.415874 0.967774 0.237643 0.967774 0 1.01398V0.195435H5.38987V1.01398C5.15223 0.967774 4.94429 0.967774 4.76606 1.01398C4.64724 1.06019 4.52841 1.15591 4.40959 1.30443C4.29077 1.45296 4.23136 1.6972 4.23136 2.04047V23.732H8.41981C9.04363 23.732 9.51891 23.5999 9.84567 23.3392C10.1724 23.0785 10.4101 22.7649 10.5586 22.3985C10.7071 22.0124 10.7962 21.5569 10.8259 21.0321H11.9845V24.6231Z" fill="white"/>
<path d="M27.4477 22.8111C27.5071 23.1313 27.6325 23.359 27.8272 23.4944C28.0187 23.6297 28.2365 23.7221 28.4741 23.7683C28.7118 23.8145 28.9791 23.8145 29.2762 23.7683V24.6232H22.7245V23.7683C22.9919 23.8145 23.2295 23.8145 23.4374 23.7683C23.586 23.7221 23.718 23.633 23.8368 23.4944C23.9556 23.359 23.9853 23.1313 23.9259 22.8111C23.9259 22.7649 23.8434 22.3622 23.6817 21.5998C23.5166 20.8374 23.3186 19.8307 23.081 18.5765H17.3775C17.0805 19.8274 16.8494 20.8374 16.6877 21.5998C16.5227 22.3622 16.4435 22.7682 16.4435 22.8111C16.3544 23.1313 16.361 23.359 16.4666 23.4944C16.5689 23.6297 16.6976 23.7221 16.8461 23.7683C17.0244 23.8145 17.262 23.8145 17.5591 23.7683V24.6232H13.2815V23.7683C13.5489 23.8145 13.8162 23.8145 14.0836 23.7683C14.3212 23.7221 14.5357 23.633 14.7305 23.4944C14.9219 23.359 15.0638 23.1313 15.1529 22.8111C15.1529 22.788 15.2256 22.4514 15.3741 21.8044C15.5226 21.1542 15.7239 20.3027 15.9748 19.2432C16.2256 18.1837 16.5161 16.9823 16.8428 15.6389C17.1696 14.2956 17.4964 12.9192 17.8231 11.5066L20.4966 0.301076H22.7707C23.6322 4.46973 24.4045 8.1928 25.0877 11.4703C25.3848 12.8829 25.6653 14.2593 25.9327 15.6026C26.2 16.946 26.4443 18.1474 26.6687 19.2069C26.8899 20.2664 27.078 21.1245 27.2265 21.7846C27.375 22.4448 27.4477 22.788 27.4477 22.8111ZM17.5558 17.6853H22.9456C22.7674 16.7512 22.5661 15.7512 22.3449 14.6785C22.1238 13.6091 21.8994 12.5331 21.6782 11.4505C21.4571 10.3679 21.2326 9.315 21.0115 8.29181C20.7904 7.26863 20.589 6.32136 20.4108 5.4566C20.1731 6.32136 19.9355 7.26863 19.6979 8.29181C19.4602 9.315 19.216 10.3712 18.9618 11.4505C18.7077 12.5331 18.4634 13.6091 18.2258 14.6785C17.9882 15.7479 17.7637 16.7512 17.5591 17.6853H17.5558Z" fill="white"/>
<path d="M42.9077 24.6231H30.9232V23.7353C31.1609 23.8046 31.3391 23.8046 31.4579 23.7353C31.6065 23.7122 31.755 23.6264 31.9035 23.4778C32.052 23.3293 32.1247 23.095 32.1247 22.7781V2.04047C32.1247 1.6972 32.0487 1.45296 31.9035 1.30443C31.755 1.15591 31.6065 1.06019 31.4579 1.01398C31.3391 0.967774 31.1609 0.967774 30.9232 1.01398V0.195435H36.3131V1.01398C36.0755 0.967774 35.8675 0.967774 35.6893 1.01398C35.5705 1.06019 35.4517 1.15591 35.3328 1.30443C35.214 1.45296 35.1546 1.6972 35.1546 2.04047V23.732H39.3431C39.9669 23.732 40.4422 23.5999 40.7689 23.3392C41.0957 23.0785 41.3333 22.7649 41.4818 22.3985C41.6304 22.0124 41.7195 21.5569 41.7492 21.0321H42.9077V24.6231Z" fill="white"/>
<path d="M58.3711 22.8111C58.4305 23.1313 58.5559 23.359 58.7506 23.4944C58.9421 23.6297 59.1599 23.7221 59.3975 23.7683C59.6352 23.8145 59.9025 23.8145 60.1996 23.7683V24.6232H53.6479V23.7683C53.9153 23.8145 54.1529 23.8145 54.3608 23.7683C54.5094 23.7221 54.6414 23.633 54.7602 23.4944C54.879 23.359 54.9087 23.1313 54.8493 22.8111C54.8493 22.7649 54.7668 22.3622 54.6051 21.5998C54.4401 20.8374 54.242 19.8307 54.0044 18.5765H48.3009C48.0039 19.8274 47.7729 20.8374 47.6111 21.5998C47.4461 22.3622 47.3669 22.7682 47.3669 22.8111C47.2778 23.1313 47.2844 23.359 47.39 23.4944C47.4923 23.6297 47.621 23.7221 47.7696 23.7683C47.9478 23.8145 48.1854 23.8145 48.4825 23.7683V24.6232H44.2049V23.7683C44.4723 23.8145 44.7396 23.8145 45.007 23.7683C45.2446 23.7221 45.4591 23.633 45.6539 23.4944C45.8453 23.359 45.9872 23.1313 46.0763 22.8111C46.0763 22.788 46.149 22.4514 46.2975 21.8044C46.446 21.1542 46.6474 20.3027 46.8982 19.2432C47.149 18.1837 47.4395 16.9823 47.7663 15.6389C48.093 14.2956 48.4198 12.9192 48.7465 11.5066L51.42 0.301076H53.6941C54.5556 4.46973 55.3279 8.1928 56.0111 11.4703C56.3082 12.8829 56.5887 14.2593 56.8594 15.6026C57.1267 16.946 57.371 18.1474 57.5954 19.2069C57.8199 20.2664 58.0047 21.1245 58.1532 21.7846C58.3017 22.4448 58.3777 22.788 58.3777 22.8111H58.3711ZM48.4792 17.6853H53.869C53.6908 16.7512 53.4895 15.7512 53.2683 14.6785C53.0472 13.6091 52.8228 12.5331 52.6016 11.4505C52.3805 10.3679 52.156 9.315 51.9349 8.29181C51.7138 7.26863 51.5124 6.32136 51.3342 5.4566C51.0966 6.32136 50.8589 7.26863 50.6213 8.29181C50.3836 9.315 50.1394 10.3712 49.8852 11.4505C49.6311 12.5331 49.3868 13.6091 49.1492 14.6785C48.9116 15.7479 48.6871 16.7512 48.4825 17.6853H48.4792Z" fill="white"/>
<path d="M72.9826 0.231773H76.9037V1.08663C76.6364 1.04042 76.4119 1.04042 76.2337 1.08663C76.0852 1.13284 75.9432 1.22855 75.8112 1.37708C75.6759 1.52561 75.6099 1.75995 75.6099 2.07681V24.6232H71.867L64.4704 5.01433V22.7781C64.4704 23.0983 64.5364 23.326 64.6717 23.4614C64.8037 23.5967 64.9457 23.6891 65.0942 23.7353C65.2724 23.7815 65.4936 23.7815 65.7642 23.7353V24.6232H61.8431V23.7353C62.0807 23.7815 62.2887 23.7815 62.4669 23.7353C62.6154 23.6891 62.764 23.6 62.9125 23.4614C63.061 23.326 63.1336 23.0983 63.1336 22.7781V2.0735C63.1336 1.75335 63.0577 1.52231 62.9125 1.37378C62.764 1.22525 62.6154 1.12953 62.4669 1.08333C62.2887 1.03712 62.0807 1.03712 61.8431 1.08333V0.228473H66.388L74.2731 20.9991V2.0735C74.2731 1.75335 74.1972 1.52231 74.052 1.37378C73.9035 1.22525 73.7549 1.12953 73.6064 1.08333C73.4282 1.03712 73.2203 1.03712 72.9826 1.08333V0.228473V0.231773Z" fill="white"/>
<path d="M93.4794 5.21893V19.6689C93.4794 20.2828 93.3375 20.8868 93.057 21.481C92.7731 22.0751 92.3506 22.6032 91.7862 23.0685C91.2218 23.5372 90.5155 23.9102 89.6705 24.1973C88.8256 24.4812 87.8354 24.6231 86.7066 24.6231H86.327C86.1059 24.6231 85.8286 24.6297 85.5019 24.6396C85.1751 24.6495 84.8121 24.6561 84.4094 24.6561H79.8876V23.7683C80.0955 23.8145 80.2903 23.8145 80.4685 23.7683C80.617 23.7221 80.749 23.6329 80.8679 23.4943C80.9867 23.359 81.0461 23.1312 81.0461 22.8111V2.10977C81.0461 1.78961 80.9867 1.55857 80.8679 1.41004C80.749 1.26151 80.6137 1.1658 80.4685 1.11959C80.2903 1.07338 80.0955 1.07338 79.8876 1.11959V0.264734H86.7066C87.8354 0.264734 88.8223 0.40666 89.6705 0.690511C90.5188 0.974362 91.2218 1.35063 91.7862 1.81931C92.3506 2.288 92.7731 2.81609 93.057 3.4069C93.3375 3.99771 93.4794 4.60171 93.4794 5.21893ZM84.1222 1.15259V23.699H86.7957C87.3007 23.6527 87.8189 23.5471 88.3536 23.3755C88.8883 23.2039 89.3471 22.9266 89.7333 22.5371C90.2085 22.0123 90.4627 21.2961 90.4924 20.3852V4.46639C90.4924 4.05712 90.4165 3.65774 90.2679 3.27158C90.06 2.79299 89.7696 2.41342 89.3999 2.12627C89.0269 1.84242 88.621 1.62458 88.1754 1.47605C87.7298 1.32753 87.2776 1.23841 86.8155 1.2021C86.3534 1.1691 85.9475 1.14929 85.591 1.14929H84.1189L84.1222 1.15259Z" fill="white"/>
<path d="M108.408 21.0354V24.6231H95.9746V23.7353C96.2122 23.8046 96.3905 23.8046 96.5093 23.7353C96.6578 23.7122 96.7997 23.6264 96.9318 23.4778C97.0638 23.3293 97.1331 23.095 97.1331 22.7781V2.04047C97.1331 1.6972 97.0671 1.45296 96.9318 1.30443C96.7964 1.15591 96.6578 1.06019 96.5093 1.01398C96.3905 0.967774 96.2122 0.967774 95.9746 1.01398V0.195435H108.408V3.78318H107.249C107.22 3.25839 107.131 2.793 106.982 2.38373C106.834 2.04047 106.589 1.71701 106.246 1.41005C105.903 1.1031 105.437 0.94797 104.843 0.94797H100.209V12.0149H103.328C103.714 12.0149 104.012 11.9356 104.219 11.7772C104.427 11.6188 104.576 11.434 104.665 11.2293C104.784 10.9785 104.843 10.6946 104.843 10.3745H105.87V14.5761H104.843C104.843 14.256 104.784 13.9853 104.665 13.7576C104.576 13.5298 104.427 13.3318 104.219 13.1602C104.012 12.9885 103.714 12.9027 103.328 12.9027H100.209V23.8013H104.843C105.437 23.8013 105.906 23.666 106.246 23.392C106.586 23.1181 106.834 22.8012 106.982 22.4348C107.131 22.0256 107.22 21.5569 107.249 21.0354H108.408Z" fill="white"/>
<path d="M108.408 30.6561H0.407928V31.7811H108.408V30.6561Z" fill="#8EC900"/>
<path d="M0.0710754 43.6841V37.9016H2.35597C2.4684 37.9016 2.63304 37.9096 2.78162 37.9337C3.71726 38.0783 4.21118 38.8051 4.21118 39.7247C4.21118 40.6443 3.71325 41.3711 2.78162 41.5157C2.63304 41.5398 2.46439 41.5478 2.35597 41.5478H0.785857V43.6841H0.0710754ZM0.785857 40.8691H2.33187C2.43226 40.8691 2.57281 40.8611 2.69328 40.833C3.24743 40.7085 3.48034 40.2066 3.48034 39.7247C3.48034 39.2428 3.24743 38.7409 2.69328 38.6164C2.57281 38.5883 2.43226 38.5802 2.33187 38.5802H0.785857V40.8691Z" fill="white"/>
<path d="M5.1728 43.6841V37.9016H8.82702V38.5802H5.88758V40.3913H8.34515V41.0699H5.88758V43.0055H8.82702V43.6841H5.1728Z" fill="white"/>
<path d="M9.95296 43.6841V37.9016H12.2379C12.3503 37.9016 12.5149 37.9096 12.6635 37.9337C13.5992 38.0783 14.0931 38.8051 14.0931 39.7247C14.0931 40.4877 13.7517 41.1181 13.0972 41.3912L14.2135 43.6841H13.3944L12.3583 41.5478H10.6677V43.6841H9.95296ZM10.6677 40.8691H12.2138C12.3142 40.8691 12.4547 40.8611 12.5752 40.833C13.1293 40.7085 13.3622 40.2066 13.3622 39.7247C13.3622 39.2428 13.1293 38.7409 12.5752 38.6164C12.4547 38.5883 12.3142 38.5802 12.2138 38.5802H10.6677V40.8691Z" fill="white"/>
<path d="M17.3106 43.8046C16.0818 43.8046 15.1703 43.146 14.9775 42.0819L15.7164 41.9654C15.9011 42.6963 16.5396 43.1259 17.3467 43.1259C18.1217 43.1259 18.7361 42.7404 18.7361 42.11C18.7361 41.604 18.3426 41.3872 17.929 41.2627L16.4553 40.825C15.8128 40.6362 15.2024 40.2628 15.2024 39.4075C15.2024 38.3835 16.0738 37.7811 17.2263 37.7851C18.3908 37.7932 19.226 38.4236 19.4389 39.4757L18.6799 39.6082C18.5595 38.9055 17.9531 38.4718 17.2182 38.4638C16.5075 38.4558 15.9573 38.8413 15.9573 39.3753C15.9573 39.9094 16.4914 40.0941 16.9211 40.2146L18.0214 40.5318C18.5233 40.6724 19.475 40.9575 19.475 42.0698C19.475 43.1902 18.5113 43.8046 17.3106 43.8046Z" fill="white"/>
<path d="M22.8552 43.8046C21.1245 43.8046 20.1567 42.5758 20.1567 40.7928C20.1567 39.0099 21.1245 37.7811 22.8552 37.7811C24.586 37.7811 25.5537 39.0099 25.5537 40.7928C25.5537 42.5758 24.586 43.8046 22.8552 43.8046ZM20.9157 40.7928C20.9077 42.1782 21.5622 43.1139 22.8552 43.1219C24.1483 43.1299 24.7948 42.1782 24.7948 40.7928C24.7948 39.4075 24.1483 38.4718 22.8552 38.4638C21.5622 38.4558 20.9237 39.4075 20.9157 40.7928Z" fill="white"/>
<path d="M26.5209 43.6841V37.9016H27.2437L30.2594 42.4192V37.9016H30.9822V43.6841H30.2594L27.2437 39.1625V43.6841H26.5209Z" fill="white"/>
<path d="M31.8642 43.6841L33.7997 37.9016H34.7956L36.7311 43.6841H35.9882L35.5304 42.3308H33.0608L32.607 43.6841H31.8642ZM33.2857 41.6602H35.3055L34.2896 38.6525L33.2857 41.6602Z" fill="white"/>
<path d="M37.6909 43.6841V37.9016H38.4057V43.0055H41.0881V43.6841H37.6909Z" fill="white"/>
<path d="M43.3768 43.6841V37.9016H44.0915V43.6841H43.3768Z" fill="white"/>
<path d="M45.457 43.6841V37.9016H46.1799L49.1956 42.4192V37.9016H49.9184V43.6841H49.1956L46.1799 39.1625V43.6841H45.457Z" fill="white"/>
<path d="M52.246 43.8005C51.4348 43.8005 50.8445 43.3267 50.6397 42.5878L51.3505 42.4192C51.4348 42.8127 51.8002 43.1219 52.2299 43.1219C52.503 43.1219 52.8322 42.9974 52.9889 42.6842C53.0933 42.4754 53.0933 42.2264 53.0933 41.869V37.9016H53.8161V41.869C53.8161 42.367 53.8402 42.6842 53.6273 43.0536C53.3342 43.5636 52.8282 43.8005 52.246 43.8005Z" fill="white"/>
<path d="M57.4629 43.8046C56.1217 43.8046 55.1821 42.9251 55.1821 41.5759V37.9056L55.9049 37.9016V41.5157C55.9049 42.6119 56.7321 43.1299 57.4629 43.1299C58.2018 43.1299 59.021 42.6039 59.021 41.5157V37.9016H59.7438V41.5759C59.7438 42.9211 58.8042 43.8046 57.4629 43.8046Z" fill="white"/>
<path d="M61.0289 43.6841V37.9016H63.3138C63.4262 37.9016 63.5909 37.9096 63.7394 37.9337C64.6751 38.0783 65.169 38.8051 65.169 39.7247C65.169 40.4877 64.8277 41.1181 64.1731 41.3912L65.2895 43.6841H64.4703L63.4342 41.5478H61.7437V43.6841H61.0289ZM61.7437 40.8691H63.2897C63.3901 40.8691 63.5306 40.8611 63.6511 40.833C64.2052 40.7085 64.4382 40.2066 64.4382 39.7247C64.4382 39.2428 64.2052 38.7409 63.6511 38.6164C63.5306 38.5883 63.3901 38.5802 63.2897 38.5802H61.7437V40.8691Z" fill="white"/>
<path d="M67.618 43.6841V41.2787L65.6704 37.9016H66.5016L67.9794 40.4595L69.4531 37.9016H70.2843L68.3408 41.2787V43.6841H67.618Z" fill="white"/>
<path d="M72.5321 43.6841V37.9016H73.2469V43.0055H75.9293V43.6841H72.5321Z" fill="white"/>
<path d="M76.3676 43.6841L78.3032 37.9016H79.299L81.2346 43.6841H80.4917L80.0339 42.3308H77.5643L77.1105 43.6841H76.3676ZM77.7892 41.6602H79.809L78.7931 38.6525L77.7892 41.6602Z" fill="white"/>
<path d="M82.7822 43.6841L81.1076 37.9016H81.8545L83.1395 42.4754L84.4205 37.9056L85.1715 37.9016L86.4565 42.4754L87.7374 37.9016H88.4884L86.8138 43.6841H86.0991L84.798 39.1505L83.4969 43.6841H82.7822Z" fill="white"/>
<path d="M90.7188 43.6841V41.2787L88.7712 37.9016H89.6024L91.0802 40.4595L92.5539 37.9016H93.3852L91.4416 41.2787V43.6841H90.7188Z" fill="white"/>
<path d="M94.1057 43.6841V37.9016H97.7599V38.5802H94.8205V40.3913H97.2781V41.0699H94.8205V43.0055H97.7599V43.6841H94.1057Z" fill="white"/>
<path d="M98.8859 43.6841V37.9016H101.171C101.283 37.9016 101.448 37.9096 101.596 37.9337C102.532 38.0783 103.026 38.8051 103.026 39.7247C103.026 40.4877 102.685 41.1181 102.03 41.3912L103.146 43.6841H102.327L101.291 41.5478H99.6007V43.6841H98.8859ZM99.6007 40.8691H101.147C101.247 40.8691 101.388 40.8611 101.508 40.833C102.062 40.7085 102.295 40.2066 102.295 39.7247C102.295 39.2428 102.062 38.7409 101.508 38.6164C101.388 38.5883 101.247 38.5802 101.147 38.5802H99.6007V40.8691Z" fill="white"/>
<path d="M106.244 43.8046C105.015 43.8046 104.103 43.146 103.91 42.0819L104.649 41.9654C104.834 42.6963 105.473 43.1259 106.28 43.1259C107.055 43.1259 107.669 42.7404 107.669 42.11C107.669 41.604 107.276 41.3872 106.862 41.2627L105.388 40.825C104.746 40.6362 104.135 40.2628 104.135 39.4075C104.135 38.3835 105.007 37.7811 106.159 37.7851C107.324 37.7932 108.159 38.4236 108.372 39.4757L107.613 39.6082C107.492 38.9055 106.886 38.4718 106.151 38.4638C105.44 38.4558 104.89 38.8413 104.89 39.3753C104.89 39.9094 105.424 40.0941 105.854 40.2146L106.954 40.5318C107.456 40.6724 108.408 40.9575 108.408 42.0698C108.408 43.1902 107.444 43.8046 106.244 43.8046Z" fill="white"/>
</svg>
