<svg width="25" height="24" viewBox="0 0 25 24" fill="none" xmlns="http://www.w3.org/2000/svg">
<g clip-path="url(#clip0_12_284)">
<mask id="mask0_12_284" style="mask-type:luminance" maskUnits="userSpaceOnUse" x="0" y="0" width="25" height="24">
<path d="M0.25 1.90735e-06H24.25V24H0.25V1.90735e-06Z" fill="white"/>
</mask>
<g mask="url(#mask0_12_284)">
<path d="M12.25 0.703127C6.01089 0.703127 0.953125 5.76089 0.953125 12C0.953125 18.2391 6.01089 23.2969 12.25 23.2969C18.4891 23.2969 23.5469 18.2391 23.5469 12C23.5469 5.76089 18.4891 0.703127 12.25 0.703127Z" stroke="#005A3F" stroke-miterlimit="10" stroke-linecap="round" stroke-linejoin="round"/>
<path d="M12.25 20.4844C7.57169 20.4844 3.76562 16.6783 3.76562 12C3.76562 7.32169 7.57169 3.51562 12.25 3.51562C16.9283 3.51562 20.7344 7.32169 20.7344 12C20.7344 16.6783 16.9283 20.4844 12.25 20.4844Z" stroke="#005A3F" stroke-miterlimit="10" stroke-linecap="round" stroke-linejoin="round"/>
<path d="M12.8643 5.97021C12.8643 6.55268 12.3921 7.0249 11.8096 7.0249C11.2272 7.0249 10.7549 6.55268 10.7549 5.97021C10.7549 5.3877 11.2272 4.91553 11.8096 4.91553C12.3921 4.91553 12.8643 5.3877 12.8643 5.97021Z" fill="#005A3F"/>
<path d="M8.1109 12.6191L10.6777 8.95295L13.3325 7.63661L15.5084 9.81245V11.344" stroke="#005A3F" stroke-miterlimit="10" stroke-linecap="round" stroke-linejoin="round"/>
<path d="M15.5084 17.4121L13.4348 15.3385L13.3556 12.5244L13.3326 7.6367" stroke="#005A3F" stroke-miterlimit="10" stroke-linecap="round" stroke-linejoin="round"/>
<path d="M9.88911 17.8809L9.8067 14.7611L13.3543 12.2488" stroke="#005A3F" stroke-miterlimit="10" stroke-linecap="round" stroke-linejoin="round"/>
<path d="M10.6777 13.7173V8.95291" stroke="#005A3F" stroke-miterlimit="10" stroke-linecap="round" stroke-linejoin="round"/>
</g>
</g>
<defs>
<clipPath id="clip0_12_284">
<rect width="24" height="24" fill="white" transform="translate(0.25)"/>
</clipPath>
</defs>
</svg>
