<svg width="24" height="24" viewBox="0 0 24 24" fill="none" xmlns="http://www.w3.org/2000/svg">
<g clip-path="url(#clip0_136_8482)">
<path d="M0.703125 23.2969V0.703125H17.5781V19.0312L13.3617 23.2969H0.703125Z" stroke="#00855D" stroke-width="1.5" stroke-miterlimit="10" stroke-linecap="round" stroke-linejoin="round"/>
<path d="M13.3613 23.2969V19.0312H17.5801" stroke="#00855D" stroke-width="1.5" stroke-miterlimit="10" stroke-linecap="round" stroke-linejoin="round"/>
<path d="M10.5496 4.9668H8.78828C8.20516 4.9668 7.73242 5.43953 7.73242 6.02266C7.73242 6.60578 8.20516 7.07852 8.78828 7.07852H9.49375C10.0769 7.07852 10.5496 7.55125 10.5496 8.13437C10.5496 8.7175 10.0769 9.19023 9.49375 9.19023H7.73711" stroke="#00855D" stroke-width="1.5" stroke-miterlimit="10" stroke-linecap="round" stroke-linejoin="round"/>
<path d="M9.14258 9.18945V10.5957" stroke="#00855D" stroke-width="1.5" stroke-miterlimit="10" stroke-linecap="round" stroke-linejoin="round"/>
<path d="M9.14258 3.56445V4.96602" stroke="#00855D" stroke-width="1.5" stroke-miterlimit="10" stroke-linecap="round" stroke-linejoin="round"/>
<path d="M3.51758 13.4062H14.7676" stroke="#00855D" stroke-width="1.5" stroke-miterlimit="10" stroke-linecap="round" stroke-linejoin="round"/>
<path d="M3.51758 16.2188H14.7676" stroke="#00855D" stroke-width="1.5" stroke-miterlimit="10" stroke-linecap="round" stroke-linejoin="round"/>
<path d="M3.51758 19.0312H9.14258" stroke="#00855D" stroke-width="1.5" stroke-miterlimit="10" stroke-linecap="round" stroke-linejoin="round"/>
<path d="M20.4824 6.36523V19.7994C20.4824 20.7519 20.7726 21.6817 21.3143 22.4652L21.8898 23.2977L22.4654 22.4652C23.0071 21.6817 23.2973 20.7518 23.2973 19.7994V6.36523H20.4824Z" stroke="#00855D" stroke-width="1.5" stroke-miterlimit="10" stroke-linecap="round" stroke-linejoin="round"/>
<path d="M20.4824 19.7734H23.2973" stroke="#00855D" stroke-width="1.5" stroke-miterlimit="10" stroke-linecap="round" stroke-linejoin="round"/>
<path d="M20.4824 10.5957H23.2973" stroke="#00855D" stroke-width="1.5" stroke-miterlimit="10" stroke-linecap="round" stroke-linejoin="round"/>
<path d="M21.8428 6.37461V4.26758" stroke="#00855D" stroke-width="1.5" stroke-miterlimit="10" stroke-linecap="round" stroke-linejoin="round"/>
</g>
<defs>
<clipPath id="clip0_136_8482">
<rect width="24" height="24" fill="white"/>
</clipPath>
</defs>
</svg>
