<svg width="97" height="17" viewBox="0 0 97 17" fill="none" xmlns="http://www.w3.org/2000/svg">
<path d="M7.84628 1.23903C8.1236 0.713401 8.8764 0.713403 9.15372 1.23903L10.9284 4.60271C11.0354 4.80541 11.2303 4.94703 11.4561 4.98611L15.2036 5.63451C15.7892 5.73584 16.0218 6.45178 15.6076 6.87796L12.957 9.60523C12.7972 9.76958 12.7228 9.99874 12.7554 10.2256L13.2968 13.99C13.3814 14.5783 12.7723 15.0207 12.239 14.7585L8.82614 13.0804C8.62047 12.9792 8.37953 12.9792 8.17386 13.0804L4.76098 14.7585C4.22766 15.0207 3.61864 14.5782 3.70324 13.99L4.2446 10.2256C4.27722 9.99874 4.20276 9.76958 4.04303 9.60523L1.3924 6.87796C0.978192 6.45178 1.21082 5.73584 1.79642 5.63451L5.54388 4.98611C5.76971 4.94703 5.96463 4.80541 6.07158 4.60271L7.84628 1.23903Z" fill="#ECD92E"/>
<path d="M27.8023 1.23903C28.0797 0.713401 28.8325 0.713403 29.1098 1.23903L30.8845 4.60271C30.9914 4.80541 31.1863 4.94703 31.4122 4.98611L35.1596 5.63451C35.7452 5.73584 35.9779 6.45178 35.5637 6.87796L32.913 9.60523C32.7533 9.76958 32.6788 9.99874 32.7115 10.2256L33.2528 13.99C33.3374 14.5783 32.7284 15.0207 32.1951 14.7585L28.7822 13.0804C28.5765 12.9792 28.3356 12.9792 28.1299 13.0804L24.717 14.7585C24.1837 15.0207 23.5747 14.5782 23.6593 13.99L24.2007 10.2256C24.2333 9.99874 24.1588 9.76958 23.9991 9.60523L21.3485 6.87796C20.9342 6.45178 21.1669 5.73584 21.7525 5.63451L25.4999 4.98611C25.7258 4.94703 25.9207 4.80541 26.0276 4.60271L27.8023 1.23903Z" fill="#ECD92E"/>
<path d="M47.7594 1.23903C48.0367 0.713401 48.7895 0.713403 49.0668 1.23903L50.8415 4.60271C50.9485 4.80541 51.1434 4.94703 51.3692 4.98611L55.1167 5.63451C55.7023 5.73584 55.9349 6.45178 55.5207 6.87796L52.8701 9.60523C52.7103 9.76958 52.6359 9.99874 52.6685 10.2256L53.2098 13.99C53.2944 14.5783 52.6854 15.0207 52.1521 14.7585L48.7392 13.0804C48.5336 12.9792 48.2926 12.9792 48.0869 13.0804L44.6741 14.7585C44.1407 15.0207 43.5317 14.5782 43.6163 13.99L44.1577 10.2256C44.1903 9.99874 44.1159 9.76958 43.9561 9.60523L41.3055 6.87796C40.8913 6.45178 41.1239 5.73584 41.7095 5.63451L45.457 4.98611C45.6828 4.94703 45.8777 4.80541 45.9847 4.60271L47.7594 1.23903Z" fill="#ECD92E"/>
<path d="M67.7154 1.23903C67.9927 0.713401 68.7455 0.713403 69.0229 1.23903L70.7976 4.60271C70.9045 4.80541 71.0994 4.94703 71.3253 4.98611L75.0727 5.63451C75.6583 5.73584 75.8909 6.45178 75.4767 6.87796L72.8261 9.60523C72.6664 9.76958 72.5919 9.99874 72.6245 10.2256L73.1659 13.99C73.2505 14.5783 72.6415 15.0207 72.1082 14.7585L68.6953 13.0804C68.4896 12.9792 68.2487 12.9792 68.043 13.0804L64.6301 14.7585C64.0968 15.0207 63.4878 14.5782 63.5724 13.99L64.1137 10.2256C64.1464 9.99874 64.0719 9.76958 63.9122 9.60523L61.2615 6.87796C60.8473 6.45178 61.08 5.73584 61.6656 5.63451L65.413 4.98611C65.6388 4.94703 65.8338 4.80541 65.9407 4.60271L67.7154 1.23903Z" fill="#ECD92E"/>
<path d="M87.6725 1.23903C87.9498 0.713401 88.7026 0.713403 88.9799 1.23903L90.7546 4.60271C90.8615 4.80541 91.0565 4.94703 91.2823 4.98611L95.0298 5.63451C95.6154 5.73584 95.848 6.45178 95.4338 6.87796L92.7831 9.60523C92.6234 9.76958 92.549 9.99874 92.5816 10.2256L93.1229 13.99C93.2075 14.5783 92.5985 15.0207 92.0652 14.7585L88.6523 13.0804C88.4466 12.9792 88.2057 12.9792 88 13.0804L84.5872 14.7585C84.0538 15.0207 83.4448 14.5782 83.5294 13.99L84.0708 10.2256C84.1034 9.99874 84.0289 9.76958 83.8692 9.60523L81.2186 6.87796C80.8044 6.45178 81.037 5.73584 81.6226 5.63451L85.37 4.98611C85.5959 4.94703 85.7908 4.80541 85.8978 4.60271L87.6725 1.23903Z" fill="#ECD92E"/>
</svg>
