<svg width="78" height="58" viewBox="0 0 78 58" fill="none" xmlns="http://www.w3.org/2000/svg">
<path d="M17.2853 58C12.0997 58 7.92244 56.1965 4.75346 52.5896C1.58449 48.8383 0 43.8607 0 37.6567C0 29.7214 2.30471 22.291 6.91413 15.3657C11.5235 8.4403 17.2133 3.31841 23.9834 0L26.144 3.6791C23.2632 5.98756 20.6704 8.80099 18.3657 12.1194C16.205 15.4378 14.4765 19.4776 13.1801 24.2388L17.7175 25.5373C22.3269 26.9801 25.928 29.1443 28.5208 32.0299C31.2576 34.9154 32.626 38.4502 32.626 42.6343C32.626 47.2512 31.1136 51.0025 28.0886 53.8881C25.0637 56.6294 21.4626 58 17.2853 58ZM62.6593 58C57.4737 58 53.2964 56.1965 50.1274 52.5896C46.9585 48.8383 45.374 43.8607 45.374 37.6567C45.374 29.7214 47.6787 22.291 52.2881 15.3657C56.8975 8.4403 62.5873 3.31841 69.3573 0L71.518 3.6791C68.6371 5.98756 66.0443 8.80099 63.7396 12.1194C61.5789 15.4378 59.8504 19.4776 58.554 24.2388L63.0914 25.5373C67.7008 26.9801 71.3019 29.1443 73.8947 32.0299C76.6316 34.9154 78 38.4502 78 42.6343C78 47.2512 76.4875 51.0025 73.4626 53.8881C70.4377 56.6294 66.8366 58 62.6593 58Z" fill="#005A3F"/>
</svg>
