<svg width="85" height="63" viewBox="0 0 85 63" fill="none" xmlns="http://www.w3.org/2000/svg">
<path opacity="0.4" d="M18.8366 63C13.1856 63 8.63343 61.041 5.18006 57.1231C1.72669 53.0485 0 47.6418 0 40.903C0 32.2836 2.51154 24.2127 7.53463 16.6903C12.5577 9.16791 18.7581 3.60448 26.1357 0L28.4903 3.99626C25.3509 6.50373 22.5254 9.5597 20.0139 13.1642C17.6593 16.7687 15.7756 21.1567 14.3629 26.3284L19.3075 27.7388C24.3306 29.306 28.2549 31.6567 31.0803 34.791C34.0628 37.9254 35.554 41.7649 35.554 46.3097C35.554 51.3246 33.9058 55.3992 30.6094 58.5336C27.313 61.5112 23.3887 63 18.8366 63ZM68.2825 63C62.6316 63 58.0794 61.041 54.626 57.1231C51.1727 53.0485 49.446 47.6418 49.446 40.903C49.446 32.2836 51.9575 24.2127 56.9806 16.6903C62.0037 9.16791 68.2041 3.60448 75.5817 0L77.9363 3.99626C74.7969 6.50373 71.9714 9.5597 69.4598 13.1642C67.1053 16.7687 65.2216 21.1567 63.8089 26.3284L68.7535 27.7388C73.7765 29.306 77.7008 31.6567 80.5263 34.791C83.5088 37.9254 85 41.7649 85 46.3097C85 51.3246 83.3518 55.3992 80.0554 58.5336C76.759 61.5112 72.8347 63 68.2825 63Z" fill="#00855D"/>
</svg>
