<svg width="25" height="24" viewBox="0 0 25 24" fill="none" xmlns="http://www.w3.org/2000/svg">
<g clip-path="url(#clip0_12_258)">
<path d="M10.2806 9.58015L12.8857 9.58108V11.9993C12.8857 12.3128 13.0935 12.5884 13.395 12.6746C13.459 12.693 13.524 12.7018 13.5882 12.7018C13.8263 12.7018 14.0538 12.5803 14.1844 12.3707L17.6091 6.87275C17.7439 6.65639 17.7509 6.38398 17.6274 6.16102C17.5039 5.93801 17.2693 5.79943 17.0144 5.79892L14.3901 5.79335V3.37387C14.3901 3.05991 14.1818 2.78408 13.8798 2.69819C13.5781 2.61244 13.2556 2.7372 13.0903 3.00414L9.68354 8.50795C9.54946 8.72459 9.54314 8.99682 9.6671 9.21941C9.79106 9.44204 10.0258 9.58005 10.2806 9.58015ZM12.9852 5.84345V6.49422C12.9852 6.88156 13.2988 7.19584 13.6861 7.19668L15.7495 7.20109L14.2907 9.54292V8.87885C14.2907 8.491 13.9764 8.17653 13.5885 8.17639L11.5416 8.17564L12.9852 5.84345Z" fill="#00855D"/>
<path d="M24.0475 17.9976H23.2089C22.9013 16.8866 21.882 16.0684 20.6745 16.0684C19.467 16.0684 18.4477 16.8866 18.1401 17.9976H16.9181V14.8322C16.9181 13.4361 17.4661 12.1191 18.4613 11.1239C19.4565 10.1288 20.7734 9.58071 22.1696 9.58071H24.0068C24.3948 9.58071 24.7093 9.26619 24.7093 8.87825C24.7093 8.4903 24.3948 8.17578 24.0068 8.17578H22.1696C18.4992 8.17578 15.5131 11.1619 15.5131 14.8322V16.1952C15.3784 15.1669 14.6693 14.2973 13.6637 13.9706C11.3495 13.2184 8.34753 10.7949 6.90486 9.63016C6.74601 9.50194 6.6042 9.38739 6.48183 9.28998C5.57945 8.57146 4.44867 8.17578 3.29775 8.17578H1.45247C1.06452 8.17578 0.75 8.4903 0.75 8.87825C0.75 9.26619 1.06452 9.58071 1.45247 9.58071H3.29775C3.80914 9.58071 4.31496 9.68903 4.78084 9.89261V12.2399C4.78084 13.361 5.69297 14.2731 6.81405 14.2731H10.9901C11.7495 14.7069 12.5122 15.0736 13.2295 15.3067C13.7693 15.4821 14.1319 15.9827 14.1319 16.5526V17.9975H11.0837C10.7762 16.8866 9.75687 16.0683 8.54938 16.0683C7.34189 16.0683 6.32252 16.8866 6.01498 17.9975H1.45247C1.06452 17.9975 0.75 18.312 0.75 18.7C0.75 19.0879 1.06452 19.4024 1.45247 19.4024H6.01605C6.32481 20.5115 7.34324 21.328 8.54942 21.328C9.7556 21.328 10.774 20.5115 11.0827 19.4024H14.8344C15.1794 19.4024 15.4657 19.1535 15.525 18.8257C15.5844 19.1536 15.8707 19.4024 16.2157 19.4024H18.1412C18.45 20.5115 19.4684 21.328 20.6745 21.328C21.8807 21.328 22.8991 20.5115 23.2079 19.4024H24.0475C24.4355 19.4024 24.75 19.0879 24.75 18.7C24.75 18.3121 24.4355 17.9976 24.0475 17.9976ZM6.8141 12.8682C6.46764 12.8682 6.18581 12.5863 6.18581 12.2399V10.8552C6.85096 11.3916 7.7783 12.1321 8.81486 12.8682H6.8141ZM8.54942 19.9232C7.87398 19.9232 7.32446 19.3736 7.32446 18.6982C7.32446 18.0227 7.87398 17.4733 8.54942 17.4733C9.22487 17.4733 9.77438 18.0227 9.77438 18.6982C9.77438 19.3736 9.22487 19.9232 8.54942 19.9232ZM20.6745 19.9232C19.9991 19.9232 19.4496 19.3736 19.4496 18.6982C19.4496 18.0227 19.9991 17.4733 20.6745 17.4733C21.35 17.4733 21.8995 18.0227 21.8995 18.6982C21.8995 19.3736 21.35 19.9232 20.6745 19.9232Z" fill="#00855D"/>
<path d="M22.3848 12.4059H24.025C24.4129 12.4059 24.7274 12.0914 24.7274 11.7034C24.7274 11.3155 24.4129 11.001 24.025 11.001H22.3848C21.2301 11.001 20.2906 11.9405 20.2906 13.0952C20.2906 14.2499 21.2301 15.1894 22.3848 15.1894H24.025C24.4129 15.1894 24.7274 14.8749 24.7274 14.4869C24.7274 14.099 24.4129 13.7845 24.025 13.7845H22.3848C22.0048 13.7845 21.6956 13.4752 21.6956 13.0952C21.6956 12.7151 22.0048 12.4059 22.3848 12.4059Z" fill="#00855D"/>
</g>
<defs>
<clipPath id="clip0_12_258">
<rect width="24" height="24" fill="white" transform="translate(0.75)"/>
</clipPath>
</defs>
</svg>
