<svg width="24" height="25" viewBox="0 0 24 25" fill="none" xmlns="http://www.w3.org/2000/svg">
<path d="M14.0941 10.5529L14.0945 10.5525L14.0978 10.5485C14.0821 10.5684 14.0632 10.5861 14.0417 10.6005L14.0414 10.6001C14.061 10.587 14.0788 10.5711 14.0941 10.5529ZM14.2145 10.4092L20.6099 2.77109C21.1148 2.16812 20.6861 1.25 19.8997 1.25C19.6255 1.25 19.3654 1.37144 19.1894 1.58165L19.3805 1.74168L19.1894 1.58165L13.7837 8.03759C13.4626 8.42106 12.8632 8.38877 12.5852 7.97303L8.46027 1.80511C8.22829 1.45824 7.83852 1.25 7.42122 1.25H3.8718C2.87261 1.25 2.27728 2.36432 2.83275 3.19489L9.18364 12.6911C9.36888 12.9681 9.34916 13.3341 9.13523 13.5896L2.73834 21.2289C2.23343 21.8318 2.66214 22.75 3.4486 22.75C3.72277 22.75 3.98286 22.6286 4.15888 22.4183L9.92682 15.5298C10.2479 15.1463 10.8472 15.1786 11.1253 15.5943L15.5397 22.1949C15.7717 22.5418 16.1615 22.75 16.5788 22.75H20.1282C21.1274 22.75 21.7227 21.6357 21.1672 20.8051L14.2145 10.4092ZM11.6932 13.1382L11.6926 13.1373L10.9016 11.9749L5.67012 4.28658C5.33131 3.78867 5.68794 3.11466 6.29018 3.11466H6.58114C6.82939 3.11466 7.06156 3.2375 7.20121 3.44274L11.9835 10.4711L11.9835 10.4711L12.7746 11.6337L18.3147 19.7755C18.6535 20.2734 18.2969 20.9474 17.6947 20.9474H17.4037C17.1554 20.9474 16.9233 20.8246 16.7836 20.6193L11.6987 13.1467C11.697 13.1438 11.6951 13.141 11.6932 13.1382Z" stroke-width="0.5" stroke="#fff" fill="#fff"/>
</svg>